<svg height="400" viewBox="0 0 400 400" width="400" xmlns="http://www.w3.org/2000/svg"><g fill-rule="evenodd"><path d="m173.2 169.192c-12.87 1.54-18.001 4.077-29.228 14.454-4.641 4.289-9.37 9.619-13.511 15.227-1.573 2.13-3.22 3.987-3.661 4.127-.44.14-.8.449-.8.687s-.9 1.836-2 3.551-2 3.398-2 3.74-.18.622-.4.622-.4.371-.4.824c0 .516-.171.718-.458.54-.316-.195-.395.045-.255.777.111.582.047 1.059-.142 1.059-.19 0-.348-.225-.351-.5-.004-.34-.125-.312-.377.087-.232.366-.222.766.025 1.064.253.304.257.564.012.716-.212.131-.449.047-.527-.187-.355-1.064-2.802 3.615-4.632 8.855-1.107 3.171-2.91 7.852-4.006 10.404-1.096 2.551-2.394 5.791-2.883 7.2-.489 1.408-1.665 4.181-2.613 6.161-1.904 3.975-2.461 5.448-5.596 14.8-2.295 6.848-3.749 11.822-5.787 19.8-1.158 4.534-2.393 8.73-2.7 9.171-.065.094-.374-.176-.686-.6-.558-.759-.571-.758-.832.029-.145.44-.419 1.16-.607 1.6-.879 2.05-1.595 22.5-.77 21.991.222-.138.385.438.385 1.362 0 .88.18 1.711.4 1.847s.4.561.4.944c0 .875.899 2.849 1.3 2.853.165.002.3.352.3.779s.18.888.4 1.024.4.762.4 1.39c0 .629.177 1.203.393 1.277.216.073.441.792.5 1.598s.181 1.392.272 1.303c.196-.196 2.035 2.445 2.035 2.922 0 .184.36.593.8.91s.8.745.8.951c0 1.024 4.934 6.63 9.08 10.317.908.807 1.532 1.601 1.386 1.764-.147.163-.053.174.208.024.261-.149.928.182 1.482.736.554.555 1.286 1.008 1.626 1.008s.618.18.618.4.234.4.52.4c.736 0 2.673.941 2.677 1.3.002.165.323.3.715.3.391 0 .971.36 1.288.8s.832.8 1.145.8 1.093.549 1.733 1.219c1.395 1.459 3.645 2.781 4.734 2.781.433 0 .788.18.788.4s.36.4.8.4.8.18.8.4.405.404.9.409 1.35.361 1.9.791 1.405.786 1.9.791.9.189.9.409.281.4.624.4.54.135.438.3.271.327.829.361c.557.033 1.125.233 1.261.444.137.21.923.624 1.748.919s1.5.652 1.5.792c0 .141.72.494 1.6.784s1.6.679 1.6.864.709.336 1.576.336 1.688.18 1.824.4.766.4 1.4.4 1.264.18 1.4.4.657.4 1.157.4 1.034.124 1.186.276c.151.152.936.33 1.742.396.807.066 1.649.302 1.871.524s1.232.404 2.244.404 2.011.162 2.22.359c.209.198 1.64.469 3.18.603 5.603.485 7.211.729 7.777 1.179.459.365.507.343.234-.109-.272-.451-.185-.493.423-.201 1.122.537 14.166.709 14.166.187 0-.23.281-.418.624-.418.382 0 .514.193.341.5-.226.4-.175.4.256 0 .297-.275 1.313-.5 2.259-.5s1.72-.18 1.72-.4c0-.225 1.122-.4 2.567-.4 1.411 0 2.626-.163 2.7-.362.073-.199.673-.421 1.333-.493s1.796-.451 2.524-.844 1.75-.749 2.271-.792.86-.221.753-.394c-.108-.173.153-.315.579-.315s1.006-.278 1.288-.618.764-.522 1.07-.405c.306.118.447.036.312-.182-.134-.217.036-.395.379-.395s.624-.18.624-.4.317-.4.704-.4.928-.36 1.203-.8.746-.8 1.047-.8c.302 0 .78-.279 1.062-.62.283-.341 1.25-.962 2.149-1.381.899-.418 2.489-1.579 3.534-2.58 1.044-1 2.046-1.819 2.226-1.819.45 0 4.075-3.659 4.075-4.113 0-.201.54-.87 1.2-1.487s1.2-1.312 1.2-1.546.36-.619.8-.854.8-.692.8-1.014.18-.586.4-.586.4-.656.4-1.457c0-1.067.574-2.378 2.147-4.9 2.378-3.814 5.053-8.394 5.053-8.653 0-.206 1.571-3.695 3.687-8.19 1.867-3.966 3.404-7.757 5.512-13.6.833-2.31 2.636-6.99 4.006-10.4 2.42-6.026 2.887-7.295 3.606-9.8 1.517-5.29 2.274-9.256 2.785-14.6.243-2.53.715-6.13 1.051-8s1.033-5.83 1.55-8.8c.516-2.97 1.162-5.94 1.434-6.6.703-1.704.735-19.602.043-24.6-1.143-8.265-2.851-13.677-5.578-17.675-.647-.949-2.101-3.525-3.233-5.725-2.57-4.999-5.491-8.906-8.297-11.098-1.191-.93-2.166-1.848-2.166-2.04 0-.582-4.272-4.662-4.881-4.662-.313 0-.955-.36-1.427-.8s-1.018-.8-1.213-.8-.681-.36-1.079-.8-.974-.8-1.279-.8-.941-.36-1.413-.8-1.095-.8-1.383-.8c-.289 0-.525-.18-.525-.4s-.36-.4-.8-.4-.8-.151-.8-.336-.72-.574-1.6-.864-1.6-.679-1.6-.864-.36-.336-.8-.336-.8-.18-.8-.4-.641-.4-1.424-.4-1.336-.142-1.228-.315c.107-.173-.288-.355-.877-.404-.589-.048-1.131-.266-1.204-.484-.074-.219-.468-.397-.877-.397-.408 0-.854-.18-.99-.4s-.687-.4-1.224-.4-.976-.18-.976-.4-.709-.4-1.576-.4-1.688-.18-1.824-.4-.856-.4-1.6-.4-1.464-.18-1.6-.4-.676-.4-1.2-.4-1.042-.144-1.151-.32-.974-.365-1.923-.42-1.786-.271-1.859-.48c-.074-.209-.828-.38-1.677-.38-.848 0-1.654-.18-1.79-.4-.279-.452-3.086-.47-4.6-.03-.55.16-1.481.159-2.068-.002-1.71-.47-10.293-.716-13.132-.376m20.582 4.933c.633.633 2.218 3.676 2.218 4.259 0 1.418-1.494.185-2.302-1.9-1.164-3.002-1.143-3.586.084-2.359m-32.401 1.975c1.033 1.782 6.469 9.95 8.641 12.983 2.149 3.002 2.294 3.066 9.578 4.296 8.701 1.468 13.224 1.876 19.307 1.742l5.507-.121-1.967-2.697c-1.857-2.546-3.285-5.421-2.431-4.893.708.437.393-.478-.416-1.21-.845-.764-1.075-1.8-.4-1.8.22 0 .4.338.4.751 0 .957.92 1.732 1.7 1.432.411-.158 1.781 1.124 4.323 4.044l3.722 4.274 2.716-.252c4.59-.427 11.021-1.823 16.219-3.522 2.728-.891 5.086-1.494 5.24-1.339 1.214 1.219-11.015 6.636-17.808 7.887-1.382.255-2.498.657-2.48.894.067.899 11.099 10.468 17.851 15.484 2.684 1.994 2.556 2.007 10.774-1.091 9.907-3.735 10.045-3.036.365 1.847-3.068 1.547-5.643 2.878-5.722 2.958-.174.173 8.495 6.122 12.7 8.715 11.445 7.058.057 3.077-13.367-4.673l-3.901-2.252-4.866 1.61c-6.691 2.214-11.986 3.504-17.766 4.328-2.695.385-4.9.829-4.9.988 0 .34 6.964 6.058 12.537 10.295l3.917 2.978 5.673-.92c6.556-1.063 15.841-3.362 21.852-5.411 4.269-1.456 5.221-1.66 5.221-1.117 0 1.37-19.247 8.539-26.658 9.929-.738.139-1.342.394-1.342.567 0 .417 10.754 7.313 15.934 10.218l4.092 2.294 3.887-1.658c6.159-2.629 7.166-2.176 2.018.909l-3.268 1.959 1.168.935c.643.514 1.394.936 1.669.937s.5.182.5.402c0 .607-1.183.482-3.397-.359-1.927-.732-2.046-.733-3.4-.043-2.072 1.055-10.682 4.592-13.098 5.38-3.019.984-3.013.992 3.306 4.146 6.207 3.097 6.386 3.165 6.056 2.306-.826-2.151 1.78-5.216 3.484-4.099 1.914 1.254 1.626 4.297-.492 5.187-1.142.48-1.131.49 2.597 2.246 11.068 5.212-4.891 1.003-17.992-4.746-5.025-2.204-5.672-2.394-7-2.048-6.782 1.767-15.983 2.818-24.864 2.841l-7 .018 1.2.988c2.495 2.054 12.858 7.942 22 12.501 7.45 3.714 7.264 3.657 9.812 3.019 5.495-1.378 21.147-6.77 23.688-8.161.818-.447.926-.127.188.553-1.576 1.45-8.49 4.874-15.488 7.669-3.19 1.274-5.854 2.36-5.921 2.413-.145.117 4.112 1.863 10.121 4.152 2.42.922 4.713 1.847 5.095 2.057.382.209.967.38 1.3.38s.605.204.605.454c0 .928-7.631-.946-17.554-4.309l-4.154-1.408-3.246.816c-11.719 2.945-20.121 3.849-32.924 3.541l-9.439-.227 1.159.781c7.412 4.997 20.457 12.178 30.005 16.517l4.048 1.84 3.952-1.015c7.324-1.881 20.186-6.461 24.292-8.651.933-.498 1.494-.013.577.5-.372.208-.91.612-1.196.898-1.352 1.352-16.514 8.181-21.42 9.648-1.582.473-1.022.816 5.2 3.194 3.355 1.282 6.271 2.486 6.48 2.676s.704.345 1.1.345.72.18.72.4c0 .488-1.868.537-2.165.057-.116-.188-1.072-.45-2.123-.58-1.052-.131-4.857-1.153-8.456-2.272l-6.544-2.034-5.256 1.194c-9.971 2.266-13.634 2.615-27.563 2.625-10.685.008-12.595.095-12 .544 6.646 5.017 14.949 10.507 24.107 15.941 8.529 5.06 7.4 4.711 11.92 3.686 2.134-.484 4.555-.871 5.38-.86.825.01 1.5-.143 1.5-.341s.261-.36.579-.36c.805 0-.026 2.384-.929 2.668-.358.113-1.01.35-1.45.528s-1.43.55-2.2.828c-.77.277-1.533.618-1.696.756-.163.139 1.727 1.235 4.2 2.436s4.556 2.319 4.629 2.484c.074.165.389.3.7.3.312 0 .567.18.567.4 0 .812-1.769.271-10.258-3.133l-4.059-1.628-3.327.795c-10.244 2.447-23.889 3.387-34.67 2.389-5.496-.509-6.658-.371-5.41.641.614.497.633.623.128.827-.407.163-.151.392.8.717 1.015.347 1.388.705 1.367 1.311-.024.667.108.76.658.466.478-.257.836-.189 1.178.223.27.326.724.592 1.009.592.284 0 .581.19.658.422s.497.473.933.535c.436.063.989.502 1.229.976.239.474.555.743.7.597.146-.145.76-.015 1.365.29 1.271.642 2.716 1.98 2.138 1.98-.215 0-.503-.18-.639-.4s-.582-.4-.99-.4c-.409 0-.807-.19-.884-.422s-.407-.483-.733-.559c-1.511-.349-2.393-.742-2.393-1.066 0-.194-.278-.353-.617-.353s-1.003-.36-1.475-.8-1.074-.8-1.338-.8c-.773 0-2.568-1.047-3.18-1.854-.314-.416-.57-.529-.577-.256-.026.974-2.621-.017-6.67-2.547-2.813-1.758-4.836-2.715-6.6-3.124-7.264-1.685-13.293-3.79-13.67-4.773-.332-.865 1.278-2.357 2.277-2.111.468.116 1.64.409 2.606.652 2.761.695 2.634.408-1.223-2.787-9.652-7.995-19.927-20.516-26.469-32.256-1.243-2.232-2.486-4.162-2.762-4.291-2.382-1.113-8.094-4.994-7.793-5.295.198-.198 4.125 1.606 5.773 2.652 1.377.874 1.512.202.423-2.098-2.513-5.308-5.427-15.912-4.373-15.912.415 0 .85.907 2.494 5.2 4.269 11.141 6.801 15.135 10.736 16.934 10.315 4.715 39.638 13.927 39.638 12.452 0-.06-2.543-2.422-5.652-5.248-8.564-7.786-18.222-18.664-24.858-27.997-2.718-3.824-3.092-4.179-6.29-5.969-3.535-1.979-10.195-6.32-11.148-7.266-1.348-1.34.303-.782 5.522 1.867 3.094 1.57 5.626 2.739 5.626 2.597 0-.141-1.148-2.262-2.552-4.713-4.643-8.109-6.522-12.26-5.548-12.256.165.001 2.1 2.736 4.3 6.078 6.178 9.386 9.65 13.844 11.349 14.575 10.309 4.435 22.598 8.549 33.225 11.121 5.207 1.26 5.18 1.416.474-2.714-8.503-7.46-17.958-17.967-23.543-26.16-2.196-3.223-2.342-3.347-6.277-5.345-5.196-2.637-11.771-6.542-13.484-8.006-.739-.631-1.479-1.149-1.644-1.149-.165-.001-.3-.164-.3-.363 0-.2.449-.155.997.1.548.254.998.597 1 .762s.29.3.641.3 1.116.338 1.7.751c1.62 1.146 12.519 6.525 12.751 6.293.112-.112-.658-1.698-1.712-3.524-2.809-4.869-5.891-11.417-6.954-14.777-.512-1.619-1.089-3.258-1.281-3.643s-.196-.7-.009-.7 1.21 1.665 2.274 3.7c3.695 7.067 11.861 19.959 13.674 21.588 2.645 2.375 24.232 8.811 36.51 10.885 6.397 1.08 6.768 1.042 4.969-.506-9.712-8.362-16.922-15.52-22.135-21.974-2.436-3.015-3.307-3.806-4.8-4.351-13.587-4.962-31.588-13.757-28.125-13.741.396.002 5.403 1.917 9.9 3.786 4.086 1.698 14.882 5.413 15.731 5.413.441 0 .406-.235-.165-1.1-5.475-8.295-12.966-23.588-12.966-26.47 0-.431-.18-.894-.4-1.03-.462-.286-.548-1.814-.1-1.772.165.015 1.693 2.85 3.395 6.3 6.045 12.253 15.365 25.572 18.638 26.637 4.085 1.329 16.897 3.846 24.587 4.831 8.511 1.089 8.71 1.954-2.035-8.831l-9.4-9.435-3.461-1.321c-9.851-3.759-20.832-10.545-27.937-17.264-4.23-4.001-3.217-4.036 2.427-.084 7.2 5.042 22.841 13.117 23.715 12.243.131-.131-.836-1.648-2.149-3.371-7.733-10.149-16.834-26.133-14.88-26.133.22 0 .4.156.4.347 0 1.173 8.152 13.771 13.235 20.453 6.796 8.933 8.452 10.632 11.268 11.558 5.729 1.884 13.891 3.349 21.497 3.858l4.2.281-4.804-4.949c-4.807-4.95-12.554-14.312-15.793-19.083-.947-1.395-1.92-2.589-2.162-2.654-8.657-2.336-25.837-9.723-25.84-11.111-.001-.459.191-.411 5.158 1.285 5.389 1.841 16.675 5.215 17.443 5.215.315 0-.268-1.318-1.46-3.3-2.342-3.892-5.942-11.217-5.942-12.089 0-.99.573-.704 1.381.689m35.828 4.8c.005.275.361.95.791 1.5.925 1.182 1.05 1.905.208 1.207-.501-.416-1.808-2.634-1.808-3.068 0-.416.801-.057.809.361m-38.632.789c1.765 2.52-.762 5.711-3.403 4.297-1.771-.948-.274-5.186 1.832-5.186.527 0 1.226.395 1.571.889m55.601.998c.335.872-.833 2.513-1.787 2.513-.906 0-1.073-1.137-.291-1.979.4-.431.4-.482 0-.256-.75.423-.602-.202.183-.776.799-.584 1.556-.385 1.895.498m-30.562.746c.379 1.024-.882 2.67-1.781 2.325-.835-.32-.808-1.547.056-2.556.807-.942 1.317-.874 1.725.231m-6.482 14.867c1.976 2.758 9.635 11.285 15.508 17.264l6.447 6.565 5.156-.254c7.846-.386 25.362-3.871 24.122-4.8-.092-.068-1.157-.826-2.367-1.683-4.296-3.042-8.266-6.428-13.287-11.333l-5.086-4.969-4.914.28c-5.785.329-14.969-.278-21.012-1.388-5.569-1.023-5.53-1.026-4.567.318m58.723 3.5c.33.33.407.6.172.6-.236 0-.429.191-.429.424s.193.304.43.158c.236-.146.192.113-.097.576-.619.992-2.252 1.118-2.604.202-.135-.353-.071-.758.142-.9.213-.143.504-.575.646-.96.316-.858.946-.895 1.74-.1m-68.588 1.262c1.079.977.986 3.514-.158 4.315-1.954 1.369-4.261.094-3.731-2.061.666-2.71 2.323-3.671 3.889-2.254m38.242 3.561c2.004 1.404.733 4.977-1.771 4.977-2.093 0-2.656-2.343-1.125-4.679.704-1.074 1.649-1.171 2.896-.298m44.889 10.977c1.7 1.7.459 4.8-1.92 4.8-2.161 0-2.735-1.921-1.284-4.3.915-1.501 2.029-1.675 3.204-.5m-118.582 1.382c2.122 2.121-.123 5.773-2.799 4.554-1.53-.697-1.515-3.083.031-4.791.903-.998 1.593-.939 2.768.237m42.592 7.654c5.672 5.76 15.482 14.021 17.145 14.439 1.17.293 19.965-.149 22.138-.522l1.493-.255-3.493-2.635c-1.921-1.449-5.703-4.486-8.404-6.749l-4.912-4.114-2.888-.008c-5.997-.017-17.484-1.475-21.886-2.778-2.341-.693-2.288-.52.807 2.622m-19.033-1.747c1.4 1.998.192 4.711-2.097 4.711-2.161 0-2.735-1.921-1.284-4.3.954-1.565 2.446-1.746 3.381-.411m73.394 3.365c1.891 2.404-.555 5.966-2.998 4.365-1.801-1.18-.685-5.419 1.427-5.419.408 0 1.115.474 1.571 1.054m-32.787 4.221c1.668 1.79.485 4.725-1.904 4.725-2.161 0-2.735-1.921-1.284-4.3.929-1.525 2.027-1.671 3.188-.425m-39.213 9.49c4.171 4.982 14.808 14.622 22.99 20.835l3.951 3 7.46-.059c9.264-.072 25.248-1.65 25.22-2.489-.005-.138-1.76-1.237-3.9-2.441-5.116-2.877-11.975-7.47-17.782-11.908l-4.691-3.584-4.251-.275c-7.958-.514-17.446-2.006-25.928-4.077-5.109-1.248-4.984-1.289-3.069.998m-15.646 1.192c.999 2.866-2.56 5.488-4.152 3.058-.784-1.197-.214-3.461 1.104-4.384 1.074-.752 2.547-.111 3.048 1.326m103.457-.509c1.967.755 2.021 3.876.09 5.142-1.992 1.305-3.941-.505-3.054-2.836.795-2.092 1.696-2.792 2.964-2.306m-29.307 1.563c-1.829.286-6.542.751-10.475 1.033-3.932.282-7.06.659-6.95.837.4.647 16.077 10.517 22.071 13.896 4.212 2.374 3.434 2.363 11.238.162 5.435-1.533 10.447-3.242 10.985-3.745.189-.177-2.151-1.59-5.2-3.14-3.049-1.551-8.114-4.357-11.255-6.236-3.141-1.88-6.021-3.397-6.4-3.372s-2.185.279-4.014.565m6.943 7.571c1.546 1.545 1.171 3.454-.895 4.555-2.433 1.295-4-2.06-2.094-4.483 1.031-1.311 1.733-1.328 2.989-.072m-35.247.446c1.677 1.677.753 4.629-1.535 4.901-1.429.17-2.236-.554-2.236-2.004 0-2.815 2.179-4.489 3.771-2.897m-52.171 4.876c0 .365 5.165 6.438 9.705 11.412 4.923 5.392 19.494 18.171 22.638 19.853 4.207 2.252 33.516 2.227 45.38-.039 2.797-.534 2.739-.602-2.323-2.739-8.133-3.434-16.648-8.042-24.982-13.52l-4.583-3.012-5.834-.91c-13.474-2.101-27.678-6.032-37.514-10.382-2.436-1.077-2.487-1.091-2.487-.663m-8.623 7.385c.858 1.225.78 2.954-.177 3.911-1.697 1.697-4.284.519-3.831-1.745.576-2.881 2.702-4.031 4.008-2.166m97.697 10.781c1.785 1.677.597 4.73-1.841 4.73-1.556 0-2.189-.884-1.902-2.653.445-2.742 2.074-3.646 3.743-2.077m-47.669 1.135c1.563 1.727.408 4.795-1.805 4.795-1.691 0-2.595-1.265-2.04-2.856.924-2.653 2.486-3.44 3.845-1.939m-53.005 3.387c0 1.44 22.741 24.691 30.432 31.114l4.631 3.869 5.169.685c6.62.878 27.679 1.015 33.168.216 8.684-1.265 8.987-1.427 5.3-2.834-8.05-3.071-22.052-10.48-30.849-16.325l-5.651-3.754-5.6-1.132c-9.939-2.01-23.489-6.358-32.653-10.478-3.448-1.551-3.947-1.723-3.947-1.361m119.418 7.99c2.338 2.338-.653 6.559-3.087 4.356-.915-.829-.939-2.456-.054-3.749 1.28-1.871 1.781-1.968 3.141-.607m-122.293 4.234c1.793 1.67.688 4.784-1.699 4.784-1.754 0-2.388-.811-2.049-2.618.495-2.641 2.188-3.619 3.748-2.166m96.738 8.211c1.788 1.787.622 4.706-1.879 4.706-2.192 0-2.812-2.941-1.002-4.751 1.234-1.235 1.608-1.229 2.881.045m-52.194 1.635c1.614 1.461.308 4.938-1.856 4.938-2.125 0-2.796-2.038-1.417-4.3.888-1.457 2.105-1.695 3.273-.638m-55.669 1.577c0 .413 4.459 6.591 7.767 10.761 5.877 7.407 17.636 18.657 26.247 25.109 3.588 2.688 5.61 3.188 16.586 4.096 11.53.954 28.421.315 32.994-1.249.341-.116-1.972-1.526-5.427-3.309-9.465-4.881-18.089-10.294-27.167-17.049-4.261-3.17-4.514-3.296-8-3.965-11.719-2.252-25.607-6.786-37.458-12.23-5.502-2.527-5.542-2.543-5.542-2.164m.396 11.956c.96 1.156.167 2.587-1.401 2.528-1.646-.062-1.8-.719-.495-2.113 1.076-1.149 1.254-1.188 1.896-.415m-11.111 9.105c.481.275 1.232.815 1.67 1.2 1.226 1.078-.209.931-1.956-.2-1.992-1.29-1.743-2.16.286-1m107.115 1.1c1.71 1.71.568 4.8-1.774 4.8-1.708 0-2.4-.829-2.07-2.48.581-2.906 2.25-3.914 3.844-2.32m-52.86 1.443c1.939 1.358 1.758 4.088-.33 4.953-2.918 1.209-4.129-2.234-1.72-4.895.777-.86.901-.863 2.05-.058m73.624 6.195c-2.57 2.247-9.964 4.931-9.964 3.616 0-.25.301-.454.669-.454.367 0 .952-.242 1.3-.537.347-.295 2.161-1.119 4.031-1.831 1.87-.711 3.67-1.439 4-1.616 1.006-.54.985-.071-.036.822m-108.21 1.779c.526.034 1.766.492 2.741 1.012.382.204 1.021.371 1.42.371s.904.179 1.123.398c.218.218.906.439 1.527.491.622.051 1.214.311 1.316.577s.485.391.852.279c.584-.18.59-.155.045.201-.342.223-.882.345-1.2.271-1.506-.351-2.378-.741-2.378-1.064 0-.194-.452-.353-1.005-.353s-1.318-.165-1.7-.366c-.382-.202-1.345-.649-2.14-.993s-1.695-.945-2-1.334c-.513-.654-.498-.662.199-.113.415.327.955.607 1.2.623m25.046 14.167c0 .212.405.764.9 1.228.909.853.069 2.387-.959 1.752-.337-.209-.497.366-.371 1.336.036.275-.303.5-.752.5-.45 0-.818-.18-.818-.4s.202-.4.449-.4c.306 0 .321-.16.049-.5-.439-.55-.404-2.681.057-3.427.35-.567 1.445-.634 1.445-.089m43.874 4.486c2.585 2.428-.373 6.598-3.109 4.382-1.123-.909-.586-3.572.936-4.638 1.108-.776 1.07-.78 2.173.256m7.326 9.93c0 .22-.255.4-.567.4s-.897.124-1.3.275c-.645.242-.667.194-.184-.4.594-.731 2.051-.926 2.051-.275m-14.034 2.253c.696.139 1.198.454 1.116.7-.316.944-18.682.351-18.682-.604 0-.397 15.632-.483 17.566-.096" fill="#e4dc64"/><path d="m162 178.621c0 .534 3.081 6.477 4.954 9.555 1.892 3.11 1.344 3.906-1.835 2.666-.506-.197-1.639-.556-2.519-.797-2.818-.772-7.1-2.095-10.736-3.317-1.945-.654-3.625-1.101-3.733-.993-.481.482 12.052 5.858 18.069 7.75 4.977 1.566 5.317 1.727 6.036 2.855 3.257 5.108 11.439 15.034 18.864 22.882 1.375 1.453 2.5 2.763 2.5 2.91 0 .669-9.267.085-14.4-.907-6.22-1.202-10.915-2.366-13.321-3.303-1.923-.749-17.079-19.839-17.079-21.512 0-.226-.18-.41-.4-.41-.97 0 4.027 7.938 9.871 15.681 1.611 2.134 2.929 3.979 2.929 4.1 0 1.619-15.522-5.795-23.738-11.339-3.42-2.308-3.913-2.327-1.362-.053 6.772 6.037 15.683 11.333 25.69 15.265 3.291 1.293 4.324 1.914 5.763 3.461 4.292 4.618 11.348 11.717 14.168 14.258 4.854 4.371 4.521 4.44-10.521 2.191-5.019-.751-11.871-2.155-16.861-3.454l-4.26-1.11-2.569-3.2c-4.21-5.245-11.01-15.779-13.894-21.522-.884-1.761-2.052-3.17-1.529-1.844 1.813 4.593 2.848 6.897 4.833 10.76 1.297 2.527 2.701 5.074 3.12 5.662.418.587.76 1.183.76 1.324s.9 1.59 2 3.22c2.094 3.104 2.548 4.503 1.3 4.007-.385-.152-2.23-.789-4.1-1.413-4.456-1.488-8.963-3.153-13.378-4.943-8.074-3.274-2.484.324 6.678 4.298.825.358 2.085.906 2.8 1.219 2.716 1.186 7.783 3.145 9.83 3.8 1.628.521 2.457 1.095 3.518 2.436 6.634 8.383 17.073 18.864 24.352 24.448 2.414 1.852 2.223 2.372-.689 1.883-1.161-.195-3.281-.535-4.711-.757-9.424-1.459-18.763-4.036-33.583-9.266-3.539-1.25-7.19-5.56-12.633-14.912-.64-1.1-1.488-2.54-1.885-3.2-.396-.66-.827-1.515-.957-1.9-.242-.72-.942-.977-.942-.347 0 .587 4.65 9.814 6.382 12.665 2.148 3.536 2.123 4.462-.087 3.32-2.409-1.246-2.904-1.4-2.527-.79.118.192 1.544 1.005 3.168 1.808 2.744 1.355 3.11 1.693 5.145 4.751 5.766 8.662 14.885 18.735 24.419 26.97 3.713 3.207 4.066 3.723 2.551 3.723-1.026 0-10.867-2.464-14.451-3.618-10.774-3.469-19.248-6.564-23.638-8.631-.715-.337-2.336-2.053-3.843-4.067-3.407-4.556-8.319-11.568-8.319-11.875 0-.133-.383-.64-.851-1.126-.96-.996 3.969 8.688 5.251 10.317.78.992 2.018 3.515 1.821 3.713-.12.12-1.969-.667-4.108-1.748-4.781-2.415-4.513-2.304-4.513-1.881 0 .339 6.84 4.605 9.525 5.941.851.423 2.564 2.327 4.782 5.317 1.902 2.562 4.542 6.008 5.868 7.658 5.692 7.084 12.59 14.327 21.425 22.498 4.807 4.445 4.749 4.562-1.529 3.086-1.909-.448-4.281-1.005-5.271-1.238-.99-.232-2.25-.567-2.8-.743s-2.35-.717-4-1.203c-7.359-2.167-17.543-5.907-23.512-8.635-1.161-.531-2.278-.965-2.48-.965-.315 0-4.008-5.33-4.008-5.785 0-.087-.521-1.297-1.157-2.687-1.717-3.75-2.806-6.191-3.315-7.427-.347-.842-.492-.941-.616-.422-.196.818 1.931 7.151 3.566 10.618.699 1.483 1.078 2.81.934 3.266-.159.501.018.955.508 1.303.414.294 1.346 1.614 2.071 2.934 3.428 6.239 5.868 10.052 9.346 14.6 5.28 6.904 12.021 13.987 18.363 19.291 5.255 4.395 5.46 4.834 1.736 3.705-2.8-.85-4.636-.794-4.636.14 0 1.028 2.698 2.155 9.2 3.841 5.061 1.312 5.838 1.634 9.477 3.916 4.5 2.823 7.058 2.936 5.373.238-1.022-1.637.226-1.841 4.35-.712 2.331.638 22.875.688 26 .063 1.21-.242 3.55-.643 5.2-.89 1.65-.248 3.54-.596 4.2-.775 4.104-1.112 5.893-1.352 6.632-.89.416.26.942.473 1.167.473.368 0 2.655.945 5.1 2.107 2.358 1.121 1.03-.234-1.458-1.486-3.201-1.612-3.386-1.924-1.541-2.602 5.534-2.035 4.487-3.362-1.435-1.819-3.495.91-4.047.792-8.622-1.849-2.334-1.347-4.873-2.808-5.643-3.247s-1.878-1.137-2.462-1.551-1.173-.753-1.31-.753c-.984 0-19.828-13.393-19.828-14.092 0-.257.846-.317 2.3-.161 1.265.135 5.394.363 9.176.506 10.331.393 21.26-.69 31.524-3.123.88-.209 2.105-.48 2.722-.603.968-.194 3.248.343 7.878 1.854.55.179 1.81.548 2.8.819s2.301.676 2.913.9 1.223.298 1.357.163c.135-.134-.096-.358-.513-.496-.416-.139-1.297-.487-1.957-.773-3.109-1.349-6.385-2.594-6.826-2.594-.417 0-1.197-1.21-.883-1.371.06-.031.829-.288 1.709-.572 5.693-1.836 17.728-7.062 17.285-7.506-.164-.163-.72.019-3.285 1.079-1.256.519-9.824 3.401-11.6 3.902-.88.248-2.879.815-4.443 1.26-1.564.444-3.176.808-3.582.808-1.809 0-19.996-9.193-27.919-14.112-1.791-1.111-4.246-2.627-5.456-3.368-4.182-2.563-4.557-2.457 8.449-2.395 11.195.053 14.474-.152 21.751-1.363 4.105-.682 6.701-1.236 9.443-2.013 3.45-.978 3.842-.957 7.91.409 1.896.637 4.707 1.539 6.247 2.004 1.54.464 3.476 1.052 4.302 1.306s1.617.346 1.757.206c.141-.14-.085-.366-.502-.501-.416-.135-1.162-.409-1.657-.609-2.176-.88-2.835-1.137-5.1-1.991-5.8-2.187-6.334-2.747-3.5-3.671 5.098-1.661 15.185-6.15 14.765-6.57-.127-.127-1.395.235-2.818.805-4.339 1.737-12.726 4.386-16.94 5.349-1.301.298-14.769-6.276-22.848-11.152-1.397-.844-2.62-1.534-2.718-1.534-.097 0-1.564-.931-3.259-2.07-4.682-3.144-4.611-3.282 1.619-3.181 8.096.131 17.768-.767 25.14-2.334l4.241-.902 2.759 1.282c5.306 2.466 13.718 5.693 17.759 6.813 1.43.396 2.915.846 3.3.999.413.164.7.097.7-.164 0-.244-.212-.443-.472-.443-1.261 0-18.928-8.95-18.928-9.589 0-.416 2.243-1.404 5.451-2.401.578-.179 1.658-.605 2.4-.947 6.265-2.882 9.13-3.985 10.267-3.954 1.06.03 1.278-.095 1.11-.636-.152-.493.352-.984 1.882-1.835 2.392-1.329 1.987-1.89-.498-.69-3.776 1.825-4.926 1.416-15.817-5.621-1.537-.994-4-2.568-5.473-3.5-4.316-2.728-4.281-2.883.878-4.007 1.21-.263 2.65-.625 3.2-.803s1.81-.551 2.8-.828c3.926-1.1 8.467-2.726 12-4.299 1.571-.699.959-1.189-.72-.576-.594.216-1.89.615-2.88.886s-2.25.635-2.8.808c-1.537.485-6.87 1.681-10.4 2.333-1.21.224-3.159.599-4.331.833-5.008 1.002-4.785 1.11-15.869-7.715-6.894-5.488-7.497-6.259-4.9-6.259.688 0 2.343-.194 3.676-.431 9.501-1.689 9.737-1.747 17.683-4.367 5.786-1.907 5.892-1.914 8.163-.477 4.903 3.104 16.21 8.777 16.638 8.349.075-.076-3.328-2.463-7.562-5.306-4.234-2.842-7.695-5.348-7.692-5.568s1.961-1.352 4.352-2.515c4.352-2.117 5.444-3.083 2.18-1.927-9.975 3.529-8.457 3.593-13.812-.574-7.528-5.857-16.126-13.627-16.126-14.571 0-.242 1.302-.68 2.894-.975 3.896-.72 9.387-2.565 12.857-4.32 2.646-1.338 3.169-2.327.729-1.379-1.588.617-6.355 1.896-8.88 2.384-1.21.234-3.159.617-4.331.851-1.171.234-3.175.426-4.452.426h-2.321l-2.148-2.5c-4.332-5.042-5.304-5.802-5.791-4.531-.269.7.251 1.698 2.275 4.367 2.47 3.259 2.32 3.465-2.532 3.459-5.696-.007-16.413-1.121-22.9-2.38-1.1-.214-2.726-.503-3.614-.644-2.439-.387-3.218-1.254-9.135-10.168-1.678-2.529-3.051-4.411-3.051-4.182m-5.875 2.893c-.705.448-1.38 2.483-1.108 3.339.292.922 2.26 1.018 2.984.146 1.399-1.686-.157-4.578-1.876-3.485m24.275 15.68c4.978.956 7.069 1.23 12.464 1.633 4.309.322 7.063.318 10.39-.015l4.526-.452 3.02 3.12c5.846 6.037 10.876 10.311 18.373 15.611 1.844 1.303-18.087 5.315-26.338 5.302l-4.235-.007-5.21-5.293c-8.596-8.733-17.761-19.151-17.781-20.211-.009-.531.61-.491 4.791.312m-15.777 6.495c-.672.959-.858 3.511-.256 3.511.202 0 .638.104.969.231 1.642.63 2.929-2.705 1.533-3.969-.981-.887-1.503-.834-2.246.227m38.579 3.509c-1.37 1.37-.998 3.802.583 3.802 1.711 0 2.675-1.737 1.815-3.268-.799-1.423-1.38-1.552-2.398-.534m44.714 10.702c-1.966 2.263-.406 5.224 1.874 3.557 1.385-1.013.62-4.257-1.004-4.257-.144 0-.536.315-.87.7m-118.691 1.559c-1.328 1.688-1.006 3.504.648 3.664 2.159.21 2.965-2.947 1.071-4.197-.781-.515-.931-.469-1.719.533m46.475 4.548c4.646 1.111 11.826 1.938 18.978 2.185l4.079.141 2.921 2.542c3.22 2.801 9.732 8.005 11.922 9.526 1.714 1.191 2.55 1.982 2.328 2.205-.505.504-8.443.988-16.27.991l-8.943.003-1.657-1.287c-5.973-4.637-18.811-16.542-18.457-17.115.173-.28 1.288-.103 5.099.809m-22.984 1.093c-2.091 2.406-.129 5.513 2.084 3.3.961-.961 1.015-1.914.177-3.111-.749-1.07-1.445-1.129-2.261-.189m73.293 3.489c-.751.906-.715 3.032.06 3.534 1.193.773 2.731-.26 2.731-1.834 0-2.076-1.647-3.079-2.791-1.7m-32.298 4.019c-.952.666-1.399 2.481-.86 3.488.549 1.026 2.213.883 2.958-.254 1.253-1.912-.384-4.435-2.098-3.234m-35.311 7.492c1.21.32 3.28.802 4.6 1.073s3.12.645 4 .833c2.548.543 6.145 1.13 9.6 1.569 7.69.976 10.113 1.226 11.858 1.226 1.72-.001 2.168.242 6 3.252 5.209 4.09 12.399 8.931 18.309 12.324 5.2 2.987 5.563 3.419 3.148 3.752-.943.13-2.975.432-4.515.67-5.142.797-10.73 1.229-18.887 1.462l-8.087.231-1.713-1.011c-1.482-.874-6.354-4.552-9.513-7.181-6.673-5.553-18.8-17.516-18.8-18.545 0-.699.06-.694 4 .345m-20.328 2.413c-1.654 1.993-1.282 3.887.763 3.887 1.242 0 1.965-.917 1.965-2.494 0-1.669-1.755-2.565-2.728-1.393m86.859 3.479c4.99 3.005 11.767 6.691 15.779 8.582 2.726 1.284 3.07 1.913 1.39 2.537-.605.225-2.09.777-3.3 1.228-3.822 1.422-13.473 4.061-14.853 4.061-.848 0-4.933-2.176-9.747-5.192-1.32-.827-4.38-2.727-6.8-4.223-7.27-4.492-11.438-7.4-11.189-7.804.13-.209 2.341-.379 4.913-.377 4.563.004 11.064-.536 14.276-1.185 3.861-.78 4.602-.595 9.531 2.373m17.941-2.279c-1.48 1.783-1.199 3.887.519 3.887 1.265 0 2.209-1.004 2.209-2.349 0-1.8-1.71-2.764-2.728-1.538m-22.749 8.086c-1.779 1.246-1.621 4.201.224 4.201 1.431 0 2.053-.671 2.053-2.218 0-1.773-1.149-2.773-2.277-1.983m-35.694 1.255c-1.335 1.697-.904 3.746.789 3.746 1.74 0 2.617-2.901 1.251-4.138-.96-.868-1.065-.848-2.04.392m-46.195 4.567c12.49 5.105 26.844 8.85 40.566 10.584 1.348.171 3.006 1.014 6.6 3.358 9.002 5.871 19.575 11.515 27.099 14.465 4.827 1.893 4.61 2.251-1.899 3.126-1.98.266-4.788.653-6.24.859-9.807 1.392-34.995.428-37.881-1.451-8.923-5.808-35.663-32.562-32.545-32.562.183 0 2.118.729 4.3 1.621m-15.038 7.679c-1.259 2.065-.84 3.5 1.022 3.5 1.917 0 2.906-2.821 1.451-4.138-1.06-.959-1.581-.825-2.473.638m119.043 1.966c-1.296 1.85-.441 4.306 1.306 3.751.431-.136 1.077-.696 1.436-1.244 1.374-2.097-1.311-4.551-2.742-2.507m-20.988 8.472c-.813.98-.973 2.863-.291 3.429 1.611 1.337 3.847-.845 3.04-2.967-.425-1.117-1.987-1.38-2.749-.462m-47.654 1.157c-1.185 1.272-.977 3.651.336 3.837 1.995.283 3.275-2.105 1.999-3.727-.97-1.234-1.274-1.248-2.335-.11m-48.099 2.944c5.883 2.729 16.452 6.67 22.002 8.202.715.197 1.885.523 2.6.724 3.923 1.103 6.162 1.629 10.5 2.469l4.8.93 5.2 3.452c6.254 4.152 11.299 7.118 17.2 10.114 4.575 2.324 11.238 5.47 11.582 5.47.109 0 1.377.54 2.818 1.2s2.811 1.2 3.043 1.2c.785 0 .1.997-.876 1.277-.903.259-1.99.432-9.444 1.508-6.598.952-27.646.389-34.784-.93-4.66-.861-25.77-20.832-37.839-35.796-1.38-1.711-.808-1.679 3.198.18m114.731 8.389c-.758.758-1.201 2.347-.885 3.171.323.841 2.392.756 3.194-.13 1.688-1.866-.544-4.806-2.309-3.041m-122.92 5.194c-.782 1.64-.396 2.694 1.065 2.91 1.076.16 2.426-.965 2.426-2.02 0-2.58-2.394-3.19-3.491-.89m96.914 7.467c-.899 1.283-.807 2.999.177 3.311 2.07.657 3.801-1.423 2.649-3.182-.822-1.255-2-1.308-2.826-.129m-51.905 1.411c-1.939 2.242-.485 5.268 1.724 3.586 1.05-.8 1.299-2.212.582-3.306-.758-1.157-1.472-1.244-2.306-.28m-49.014 2.061c5.808 2.67 7.779 3.532 9.896 4.33 1.21.456 3.64 1.375 5.4 2.041 7.653 2.898 16.475 5.284 25.28 6.839 1.505.265 3.685 1.433 5.629 3.015 7.151 5.819 22.677 15.43 32.116 19.882 3.29 1.552 3.358 1.727.875 2.26-8.415 1.804-34.136 2.135-40.367.519-1.796-.466-3.776-.848-4.4-.848-.929-.001-8.965-5.362-10.133-6.76-.11-.131-1.28-1.136-2.6-2.233-6.326-5.254-16.36-15.841-21.046-22.206-6.206-8.429-6.993-9.965-4.427-8.638.594.308 2.294 1.117 3.777 1.799m89.905 21.63c-1.095 1.095-1.11 3.46-.024 3.804 2.407.764 3.839-3.005 1.597-4.205-.595-.318-.943-.229-1.573.401m-52.813 2.509c-.997 1.635-.993 1.997.031 2.925 1.842 1.667 4.234-1.59 2.541-3.46-.988-1.092-1.666-.951-2.572.535m69.404 7.1c-.136.22.023.4.353.4s.711-.18.847-.4-.023-.4-.353-.4-.711.18-.847.4m-35.177 18.889c-.795 1.134-.8 2.866-.011 3.521.871.723 2.494-.095 2.828-1.426.601-2.394-1.509-3.963-2.817-2.095m-10.723 12.2c.715.089 1.885.089 2.6 0 .715-.088.13-.161-1.3-.161s-2.015.073-1.3.161" fill="#faf9ef"/><path d="m271.6 23.2c-.55.647-1.207 1.181-1.459 1.188-.573.015-6.541 5.812-6.541 6.354 0 .218-1.26 1.672-2.8 3.23-1.54 1.559-2.8 2.991-2.8 3.183s-.72 1.09-1.6 1.997-1.6 1.846-1.6 2.088c0 .241-.54.943-1.2 1.56s-1.2 1.369-1.2 1.672-.36.811-.8 1.128-.8.857-.8 1.2-.36.883-.8 1.2-.8.857-.8 1.2-.36.883-.8 1.2-.8.897-.8 1.288c0 .392-.18.712-.4.712s-.4.32-.4.712c0 .391-.36.971-.8 1.288s-.8.897-.8 1.288c0 .392-.18.712-.4.712s-.4.36-.4.8-.18.8-.4.8-.4.32-.4.712c0 .391-.36.971-.8 1.288s-.8.897-.8 1.288c0 .392-.18.712-.4.712s-.4.36-.4.8-.18.8-.4.8-.4.36-.4.8-.18.8-.4.8-.4.36-.4.8-.18.8-.4.8-.4.36-.4.8-.18.8-.4.8-.4.36-.4.8-.18.8-.4.8-.4.36-.4.8-.18.8-.4.8-.4.36-.4.8-.18.8-.4.8-.4.36-.4.8-.18.8-.4.8-.4.36-.4.8c0 1.175-.178 1.064-3.2-2-1.519-1.54-2.968-2.8-3.22-2.8-.253 0-.963-.54-1.58-1.2s-1.409-1.2-1.76-1.2c-.352 0-.64-.18-.64-.4s-.36-.4-.8-.4-.8-.18-.8-.4-.36-.4-.8-.4-.8-.18-.8-.4-.36-.4-.8-.4-.8-.18-.8-.4-.36-.4-.8-.4-.8-.18-.8-.4-.439-.4-.976-.4-1.088-.18-1.224-.4-.597-.4-1.024-.4-.776-.18-.776-.4-.72-.4-1.6-.4-1.6-.18-1.6-.4-.799-.4-1.776-.4-1.888-.18-2.024-.4-1.396-.4-2.8-.4-2.664-.18-2.8-.4c-.331-.535-12.469-.535-12.8 0-.136.22-1.722.406-3.524.413-6.027.023-6.007 1.754.074 6.309 1.9 1.424 4.05 3.558 4.05 4.021 0 .204 1.62 2.029 3.6 4.057s3.6 3.865 3.6 4.083.54.9 1.2 1.517 1.2 1.274 1.201 1.46c0 .187.54.97 1.199 1.74s1.199 1.543 1.199 1.717c.001.174.361.703.801 1.175s.8 1.095.8 1.383c0 .289.18.525.4.525s.4.32.4.712c0 .391.36.971.8 1.288s.8.897.8 1.288c0 .392.18.712.4.712s.4.36.4.8.18.8.4.8.4.36.4.8c0 .667-.267.8-1.6.8-.88 0-1.6-.18-1.6-.4s-.36-.4-.8-.4-.8-.18-.8-.4-.36-.4-.8-.4-.8-.18-.8-.4-.349-.4-.776-.4-.888-.18-1.024-.4-.687-.4-1.224-.4-.976-.18-.976-.4-.36-.4-.8-.4-.8-.18-.8-.4-.54-.4-1.2-.4-1.2-.18-1.2-.4-.54-.4-1.2-.4-1.2-.18-1.2-.4-.54-.4-1.2-.4-1.2-.18-1.2-.4-.72-.4-1.6-.4-1.6-.18-1.6-.4-.9-.4-2-.4-2-.18-2-.4c0-.25-2.392-.4-6.376-.4-3.82 0-6.476.16-6.624.4-.136.22-.687.4-1.224.4-.782 0-.976.205-.976 1.029 0 1.348 1.855 2.971 3.395 2.971.333 0 .605.18.605.4s.36.4.8.4.8.15.8.332c0 .183.495.588 1.1.9.605.313 1.449.883 1.875 1.268.427.385 1.012.7 1.3.7.679 0 .665.318-.046 1.029-.359.358-1.402.571-2.8.571-1.226 0-2.229.18-2.229.4s-.709.4-1.576.4-1.688.18-1.824.4-1.047.4-2.024.4-1.776.18-1.776.4-.54.4-1.2.4-1.2.18-1.2.4-.72.4-1.6.4-1.6.18-1.6.4-.54.4-1.2.4-1.2.18-1.2.4-.54.4-1.2.4-1.2.18-1.2.4-.54.4-1.2.4-1.2.18-1.2.4-.36.4-.8.4-.8.18-.8.4-.54.4-1.2.4-1.2.18-1.2.4-.36.4-.8.4-.8.18-.8.4-.36.4-.8.4-.8.18-.8.4-.54.4-1.2.4-1.2.18-1.2.4-.36.4-.8.4-.8.18-.8.4-.36.4-.8.4-.8.18-.8.4-.36.4-.8.4-.8.18-.8.4-.32.4-.712.4c-.391 0-.971.36-1.288.8s-.897.8-1.288.8c-.392 0-.712.18-.712.4s-.36.4-.8.4-.8.18-.8.4-.236.4-.525.4c-.288 0-.911.36-1.383.8s-1.096.8-1.387.8-.788.36-1.105.8-.857.8-1.2.8-.883.36-1.2.8-.857.8-1.2.8-.883.36-1.2.8-.785.8-1.04.8-1.205.72-2.112 1.6-1.84 1.6-2.074 1.6-1.303.9-2.374 2-2.135 2-2.363 2c-.542 0-11.237 10.695-11.237 11.237 0 .228-.9 1.292-2 2.363s-2 2.158-2 2.414-.54.969-1.2 1.586-1.2 1.337-1.2 1.6-.54.983-1.2 1.6-1.2 1.369-1.2 1.672-.36.811-.8 1.128-.8.814-.8 1.105-.36.915-.8 1.387-.8 1.095-.8 1.383c0 .289-.18.525-.4.525s-.4.32-.4.712c0 .391-.36.971-.8 1.288s-.8.897-.8 1.288c0 .392-.18.712-.4.712s-.4.36-.4.8-.18.8-.4.8-.4.36-.4.8-.18.8-.4.8-.4.36-.4.8-.18.8-.4.8-.4.36-.4.8-.18.8-.4.8-.4.36-.4.8-.18.8-.4.8-.4.36-.4.8-.18.8-.4.8-.4.36-.4.8-.18.8-.4.8-.4.36-.4.8-.18.8-.4.8-.4.54-.4 1.2-.18 1.2-.4 1.2-.4.36-.4.8-.18.8-.4.8-.4.54-.4 1.2-.18 1.2-.4 1.2-.4.54-.4 1.2-.18 1.2-.4 1.2-.4.54-.4 1.2-.18 1.2-.4 1.2-.4.54-.4 1.2-.18 1.2-.4 1.2-.4.529-.4 1.176-.18 1.288-.4 1.424-.4.867-.4 1.624-.18 1.376-.4 1.376-.4.9-.4 2-.18 2-.4 2-.4.9-.4 2-.18 2-.4 2c-.222 0-.4 1.067-.4 2.4s-.178 2.4-.4 2.4c-.233 0-.4 1.325-.4 3.176 0 1.747-.18 3.288-.4 3.424-.547.338-.547 22.2 0 22.2.237 0 .4 1.467.4 3.6s.163 3.6.4 3.6c.222 0 .4 1.067.4 2.4s.178 2.4.4 2.4c.22 0 .4.9.4 2s.18 2 .4 2 .4.799.4 1.776.18 1.888.4 2.024.4.777.4 1.424.18 1.176.4 1.176.4.72.4 1.6.18 1.6.4 1.6.4.54.4 1.2.18 1.2.4 1.2.4.54.4 1.2.18 1.2.4 1.2.4.54.4 1.2.18 1.2.4 1.2.4.54.4 1.2.18 1.2.4 1.2.4.36.4.8.18.8.4.8.4.439.4.976.18 1.088.4 1.224.4.597.4 1.024.18.776.4.776.4.36.4.8.18.8.4.8.4.36.4.8.18.8.4.8.4.36.4.8.18.8.4.8.4.36.4.8.18.8.4.8.4.36.4.8.18.8.4.8.4.36.4.8.18.8.4.8.4.32.4.712c0 .391.36.971.8 1.288s.8.897.8 1.288c0 .392.18.712.4.712s.4.32.4.712c0 .391.36.971.8 1.288s.8.897.8 1.288c0 .392.18.712.4.712s.4-.183.4-.406.543-.898 1.207-1.5c1.029-.933 1.408-1.89 2.569-6.494 1.564-6.201 2.256-8.751 3.367-12.4.436-1.43 1.091-3.59 1.456-4.8.884-2.926 1.583-5.021 2.403-7.2.372-.99 1.214-3.24 1.871-5s1.691-4.19 2.296-5.4c.606-1.21 1.691-3.73 2.411-5.6s1.545-3.94 1.833-4.6c.289-.66.913-2.19 1.387-3.4s1.106-2.74 1.404-3.4.807-2.01 1.131-3c.563-1.72.89-2.615 2.774-7.6.458-1.21 1.315-2.92 1.905-3.8 1.587-2.365 6.797-10.968 7.7-12.712.43-.832 1.19-1.732 1.69-2 .499-.269 2.121-2.108 3.605-4.088 16.746-22.353 33.705-32.142 51.657-29.82 5.137.665 8.248.774 7.747.273-.227-.227-.413-.737-.413-1.133s-.18-.72-.4-.72-.4-.36-.4-.8-.18-.8-.4-.8-.4-.32-.4-.712c0-.391-.36-.971-.8-1.288s-.8-.81-.8-1.096c0-.573-4.978-5.704-5.533-5.704-.192 0-.913-.54-1.604-1.2s-1.527-1.2-1.859-1.2-.604-.18-.604-.4-.278-.4-.617-.4-1.003-.36-1.475-.8-1.095-.8-1.383-.8c-.289 0-.525-.18-.525-.4s-.54-.4-1.2-.4-1.2-.18-1.2-.4-.36-.4-.8-.4-.8-.18-.8-.4-.36-.4-.8-.4-.8-.18-.8-.4-.54-.4-1.2-.4-1.2-.18-1.2-.4-.54-.4-1.2-.4-1.2-.18-1.2-.4-.72-.4-1.6-.4-1.6-.18-1.6-.4-.36-.4-.8-.4-.8-.103-.8-.229c0-.399 1.125-1.371 1.588-1.371.245 0 .832-.36 1.304-.8s1.095-.8 1.383-.8c.289 0 .525-.18.525-.4s.349-.4.776-.4.888-.18 1.024-.4.687-.4 1.224-.4.976-.18.976-.4.54-.4 1.2-.4 1.2-.18 1.2-.4.72-.4 1.6-.4 1.6-.18 1.6-.4c0-.248 2.133-.4 5.6-.4s5.6.152 5.6.4c0 .22.72.4 1.6.4s1.6.18 1.6.4.72.4 1.6.4 1.6.18 1.6.4.36.4.8.4.8.18.8.4.36.4.8.4.8.18.8.4.36.4.8.4.8.15.8.332c0 .183.495.588 1.1.9.605.313 2.137 1.603 3.405 2.868 3.562 3.554 4.295 3.332 4.295-1.3 0-2.133-.163-3.6-.4-3.6-.229 0-.4-1.2-.4-2.8s-.171-2.8-.4-2.8c-.222 0-.4-1.067-.4-2.4s-.178-2.4-.4-2.4c-.22 0-.4-.9-.4-2s-.18-2-.4-2-.4-.72-.4-1.6-.18-1.6-.4-1.6-.4-.72-.4-1.6-.18-1.6-.4-1.6-.4-.54-.4-1.2-.18-1.2-.4-1.2-.4-.54-.4-1.2-.18-1.2-.4-1.2-.4-.36-.4-.8-.18-.8-.4-.8-.4-.54-.4-1.2-.18-1.2-.4-1.2-.4-.36-.4-.8-.18-.8-.4-.8-.4-.36-.4-.8-.18-.8-.4-.8-.4-.36-.4-.8-.18-.8-.4-.8-.4-.36-.4-.8-.18-.8-.4-.8-.4-.36-.4-.8-.18-.8-.4-.8-.4-.236-.4-.525c0-.288-.36-.911-.8-1.383s-.8-1.096-.8-1.387-.36-.788-.8-1.105-.8-.785-.8-1.04-.72-1.205-1.6-2.112c-1.525-1.571-2.063-2.848-1.2-2.848.22 0 .4.18.4.4s.36.4.8.4.801.135.803.3c.003.311 1.9 1.3 2.493 1.3.186 0 .724.36 1.196.8s1.095.8 1.383.8c.289 0 .525.18.525.4s.32.4.712.4c.391 0 .971.36 1.288.8s.897.8 1.288.8c.392 0 .712.18.712.4s.32.4.712.4c.391 0 .971.36 1.288.8s.857.8 1.2.8.883.36 1.2.8.809.8 1.092.8 1.08.54 1.771 1.2 1.411 1.2 1.6 1.2.909.54 1.6 1.2 1.415 1.2 1.609 1.2 2.322 1.98 4.728 4.4c5.952 5.987 5.6 6.289 5.6-4.8 0-5.867-.145-9.2-.4-9.2-.229 0-.4-1.2-.4-2.8s-.171-2.8-.4-2.8c-.22 0-.4-.9-.4-2s-.18-2-.4-2-.4-.72-.4-1.6-.18-1.6-.4-1.6-.4-.529-.4-1.176-.18-1.288-.4-1.424-.4-.689-.4-1.229-.18-1.339-.4-1.776-.58-1.153-.8-1.59-.4-1.157-.4-1.6-.18-.805-.4-.805-.4-.36-.4-.8-.18-.8-.4-.8-.4-.54-.4-1.2-.18-1.2-.4-1.2-.4-.36-.4-.8-.18-.8-.4-.8-.4-.345-.4-.767c0-.421-.225-.847-.5-.945s-.377-.311-.226-.473c.15-.163.679.083 1.175.545s1.048.84 1.226.84 1.066.72 1.973 1.6 1.813 1.6 2.014 1.6 2.117 1.755 4.257 3.9c2.141 2.145 4.729 4.53 5.753 5.3s2.13 1.85 2.459 2.4c.862 1.44 6.112 6.8 6.662 6.8.789 0 1.607-1.093 1.607-2.148 0-.553.18-1.116.4-1.252s.4-.687.4-1.224.18-.976.4-.976.4-.54.4-1.2.18-1.2.4-1.2.4-.439.4-.976.18-1.088.4-1.224.4-.597.4-1.024.18-.776.4-.776.4-.36.4-.8.18-.8.4-.8.4-.36.4-.8.18-.8.4-.8.4-.36.4-.8.18-.8.4-.8.4-.36.4-.8.18-.8.4-.8.4-.36.4-.8.18-.8.4-.8.4-.36.4-.8.18-.8.4-.8.4-.36.4-.8.18-.8.4-.8.4-.32.4-.712c0-.391.36-.971.8-1.288s.8-.897.8-1.288c0-.392.18-.712.4-.712s.4-.236.4-.525c0-.288.36-.911.8-1.383s.8-1.096.8-1.387.36-.788.8-1.105.8-.762.801-.988c0-.227.54-1.042 1.199-1.812s1.199-1.625 1.199-1.9c.001-.275.175-.5.388-.5.214 0 .272.301.131.669-.198.517-.096.608.445.4.386-.148.868-.269 1.07-.269s.367-.288.367-.64c0-.351.54-1.143 1.2-1.76s1.2-1.335 1.2-1.597c0-.263 1.08-1.567 2.4-2.899 1.32-1.333 2.4-2.626 2.4-2.875s.36-.712.8-1.029.8-.897.8-1.288c0-.392.18-.712.4-.712s.4.7.4 1.556c0 1.236-.144 1.544-.7 1.5-.651-.052-.707.816-.806 12.33-.064 7.451-.263 12.543-.5 12.78-.217.217-.394 1.888-.394 3.714 0 1.947-.165 3.32-.4 3.32-.222 0-.4 1.067-.4 2.4s.178 2.4.4 2.4c.22 0 .4.36.4.8s-.18.8-.4.8-.4.799-.4 1.776-.18 1.888-.4 2.024-.4.777-.4 1.424-.18 1.176-.4 1.176-.4.54-.4 1.2-.18 1.2-.4 1.2-.4.54-.4 1.2-.18 1.2-.4 1.2-.4.349-.4.776-.18.888-.4 1.024c-1.367.845-.381 2.2 1.6 2.2 1.1 0 2-.18 2-.4 0-.256 3.6-.4 10-.4 9.733 0 10 .021 10 .8 0 .44.18.8.4.8s.4.18.4.4-.36.4-.8.4-.8.18-.8.4-.234.4-.52.4c-.736 0-2.673.941-2.677 1.3-.002.165-.346.3-.765.3-.907 0-4.038 1.608-4.038 2.074 0 .179-.32.326-.712.326-.391 0-.971.36-1.288.8s-.857.8-1.2.8-.883.36-1.2.8-.821.8-1.12.8c-.298 0-1.234.72-2.08 1.6s-1.722 1.6-1.949 1.6c-.565 0-13.651 13.061-13.651 13.626 0 .249-.54.957-1.2 1.574-2.531 2.365-2.384 2.4 10 2.4 7.2 0 11.2.143 11.2.4 0 .229 1.2.4 2.8.4s2.8.171 2.8.4c0 .22.9.4 2 .4s2 .18 2 .4.72.4 1.6.4 1.6.18 1.6.4.72.4 1.6.4 1.6.18 1.6.4.461.4 1.024.4c.58 0 .916.173.776.4-.136.22-.957.4-1.824.4s-1.576.18-1.576.4-.72.4-1.6.4-1.6.18-1.6.4-.72.4-1.6.4-1.6.18-1.6.4-.54.4-1.2.4-1.2.191-1.2.424.178.313.395.179c.224-.138.296.015.167.352-.285.743-1.926 1.845-2.748 1.845-.338 0-.614.18-.614.4s-.252.4-.559.4c-1.259 0-9.159 4.911-16.601 10.321-2.053 1.492-2.44 1.568-2.44.479 0-1.656-1.393-.623-7.808 5.79-5.042 5.041-6.592 6.827-6.592 7.6v1.01h5.376c3.153 0 5.479.165 5.624.4.136.22.777.4 1.424.4s1.176.18 1.176.4.54.4 1.2.4 1.2.18 1.2.4.349.4.776.4.888.18 1.024.4.687.4 1.224.4.976.18.976.4.32.4.712.4c.391 0 .971.36 1.288.8s.809.8 1.092.8 1.08.54 1.771 1.2 1.427 1.2 1.636 1.2c.488 0 3.901 3.602 3.901 4.117 0 .214.316.68.703 1.036.386.356.957 1.142 1.267 1.747.311.605.715 1.1.898 1.1.182 0 .332.36.332.8s.18.8.4.8.4.36.4.8.18.8.4.8.4.36.4.8.18.8.4.8.4.439.4.976.18 1.088.4 1.224.4.597.4 1.024.18.776.4.776.4.216.4.48c0 .373-.107.373-.48 0-.264-.264-.804-.48-1.2-.48s-.72-.18-.72-.4-.36-.4-.8-.4-.8-.18-.8-.4-.36-.4-.8-.4-.8-.18-.8-.4-.54-.4-1.2-.4-1.2-.18-1.2-.4-.54-.4-1.2-.4-1.2-.18-1.2-.4-.54-.4-1.2-.4-1.2-.18-1.2-.4-.709-.4-1.576-.4-1.688-.18-1.824-.4-1.396-.4-2.8-.4-2.664-.18-2.8-.4-1.767-.4-3.624-.4c-1.984 0-3.376.165-3.376.4 0 .229-1.2.4-2.8.4s-2.8.171-2.8.4c0 .22-.54.4-1.2.4s-1.2.18-1.2.4-.283.4-.629.4c-2.003 0-2.115 2.188-.17 3.337 2.602 1.537 6.738 7.122 9.97 13.463.953 1.87 2.216 4.12 2.807 5 5.36 7.978 7.69 29.5 4.699 43.4-.544 2.53-1.202 5.86-1.462 7.4-.651 3.859-1.187 6.849-1.635 9.131-.209 1.061-.38 2.876-.38 4.033 0 7.117-2.756 16.612-9.997 34.436-.179.44-.703 1.835-1.164 3.1-1.89 5.18-2.639 7.05-4.047 10.1-.813 1.76-1.85 4.01-2.304 5-2.009 4.375-3.718 7.891-4.377 9-.392.66-1.657 2.766-2.812 4.681-2.279 3.778-2.538 4.719-1.299 4.719.44 0 .8-.18.8-.4s.72-.4 1.6-.4 1.6-.18 1.6-.4.54-.4 1.2-.4 1.2-.18 1.2-.4.54-.4 1.2-.4 1.2-.18 1.2-.4.54-.4 1.2-.4 1.2-.18 1.2-.4.36-.4.8-.4.8-.18.8-.4.54-.4 1.2-.4 1.2-.18 1.2-.4.36-.4.8-.4.8-.18.8-.4.36-.4.8-.4.8-.18.8-.4.54-.4 1.2-.4 1.2-.18 1.2-.4.36-.4.8-.4.8-.18.8-.4.36-.4.8-.4.8-.18.8-.4.36-.4.8-.4.8-.18.8-.4.36-.4.8-.4.8-.18.8-.4.236-.4.525-.4c.288 0 .911-.36 1.383-.8s1.136-.8 1.475-.8.617-.18.617-.4.32-.4.712-.4c.391 0 .971-.36 1.288-.8s.897-.8 1.288-.8c.392 0 .712-.18.712-.4s.243-.4.541-.4c.297 0 1.105-.54 1.796-1.2s1.488-1.2 1.771-1.2.775-.36 1.092-.8.825-.8 1.128-.8 1.055-.54 1.672-1.2 1.333-1.2 1.592-1.2 1.162-.72 2.008-1.6 1.728-1.6 1.96-1.6c.553 0 14.44-13.887 14.44-14.44 0-.232.72-1.114 1.6-1.96s1.6-1.749 1.6-2.008.54-.975 1.2-1.592 1.2-1.292 1.2-1.501.54-.945 1.2-1.636 1.2-1.488 1.2-1.771.36-.775.8-1.092.8-.857.8-1.2.36-.883.8-1.2.8-.897.8-1.288c0-.392.18-.712.4-.712s.4-.32.4-.712c0-.391.36-.971.8-1.288s.8-.897.8-1.288c0-.392.18-.712.4-.712s.4-.36.4-.8.18-.8.4-.8.4-.36.4-.8.18-.8.4-.8.4-.36.4-.8.18-.8.4-.8.4-.36.4-.8.18-.8.4-.8.4-.36.4-.8.18-.8.4-.8.4-.36.4-.8.18-.8.4-.8.4-.36.4-.8.18-.8.4-.8.4-.54.4-1.2.18-1.2.4-1.2.4-.36.4-.8.18-.8.4-.8.4-.54.4-1.2.18-1.2.4-1.2.4-.36.4-.8.18-.8.4-.8.4-.529.4-1.176.18-1.288.4-1.424.4-.676.4-1.2.18-1.064.4-1.2.4-.867.4-1.624.18-1.376.4-1.376.4-.529.4-1.176.18-1.288.4-1.424.4-1.047.4-2.024.18-1.776.4-1.776.4-.72.4-1.6.18-1.6.4-1.6c.222 0 .4-1.067.4-2.4s.178-2.4.4-2.4c.229 0 .4-1.2.4-2.8s.171-2.8.4-2.8c.248 0 .4-2.125.4-5.576 0-3.287.164-5.678.4-5.824.221-.137.4-1.937.4-4.024 0-2.251-.162-3.776-.4-3.776-.246 0-.4-2-.4-5.2s-.154-5.2-.4-5.2c-.228 0-.4-1.192-.4-2.776 0-1.527-.18-2.888-.4-3.024s-.4-1.227-.4-2.424-.18-2.176-.4-2.176-.4-.799-.4-1.776-.18-1.888-.4-2.024-.4-.957-.4-1.824-.18-1.576-.4-1.576-.4-.54-.4-1.2-.18-1.2-.4-1.2-.4-.72-.4-1.6-.18-1.6-.4-1.6-.4-.54-.4-1.2-.18-1.2-.4-1.2-.4-.54-.4-1.2-.18-1.2-.4-1.2-.4-.36-.4-.8-.18-.8-.4-.8-.4-.54-.4-1.2-.18-1.2-.4-1.2-.4-.54-.4-1.2-.18-1.2-.4-1.2-.4-.36-.4-.8-.18-.8-.4-.8-.4-.36-.4-.8-.18-.8-.4-.8-.4-.36-.4-.8-.18-.8-.4-.8-.4-.36-.4-.8-.18-.8-.4-.8-.4-.36-.4-.8-.18-.8-.4-.8-.4-.36-.4-.8-.18-.8-.4-.8-.4-.36-.4-.8-.18-.8-.4-.8-.4-.36-.4-.8-.18-.8-.4-.8-.4-.36-.4-.8-.18-.8-.4-.8-.4-.236-.4-.525c0-.288-.36-.911-.8-1.383s-.8-1.096-.8-1.387-.36-.788-.8-1.105-.8-.897-.8-1.288c0-.392-.15-.712-.332-.712-.183 0-.587-.495-.898-1.1-.31-.605-.881-1.391-1.267-1.747-.387-.356-.703-.875-.703-1.153s-.315-.799-.7-1.157c-.985-.917-1.809-2.472-1.473-2.782.155-.144.363-.036.461.239.102.284.854.5 1.745.5.862 0 1.567.18 1.567.4 0 .635 4.371.486 5.029-.171 1.089-1.089-.975-5.029-2.634-5.029-.243 0-.328-.184-.189-.41.139-.225.015-.36-.276-.3-.292.061-.481-.128-.42-.42.06-.291-.075-.415-.3-.276-.226.139-.41.054-.41-.189 0-.66-1.873-2.405-2.582-2.405-.34 0-.618-.18-.618-.4s-.36-.4-.8-.4-.8-.18-.8-.4-.36-.4-.8-.4-.8-.18-.8-.4-.36-.4-.8-.4-.8-.18-.8-.4-.36-.4-.8-.4-.8-.18-.8-.4-.36-.4-.8-.4-.8-.18-.8-.4-.36-.4-.8-.4-.8-.18-.8-.4-.349-.4-.776-.4-.888-.18-1.024-.4-.687-.4-1.224-.4-.976-.18-.976-.4-.349-.4-.776-.4-.888-.18-1.024-.4-.596-.4-1.023-.4-1.518-.72-2.425-1.6-1.82-1.6-2.029-1.6-.65-.27-.98-.6c-.742-.742.084-1.8 1.405-1.8.443 0 .916-.18 1.052-.4s.597-.4 1.024-.4.776-.18.776-.4.54-.4 1.2-.4 1.2-.18 1.2-.4.54-.4 1.2-.4 1.2-.18 1.2-.4.54-.4 1.2-.4 1.2-.18 1.2-.4c0-.222 1.067-.4 2.4-.4s2.4-.178 2.4-.4c0-.22.9-.4 2-.4s2-.18 2-.4.979-.4 2.176-.4 2.288-.18 2.424-.4 1.576-.4 3.2-.4 3.064-.18 3.2-.4c.147-.238 2.671-.4 6.224-.4 3.717 0 5.976-.151 5.976-.4 0-.22.619-.4 1.376-.4s1.488.18 1.624.4c.711 1.15 2.6.419 2.6-1.006 0-1.406-5.992-8.194-7.234-8.194-.245 0-.949-.54-1.566-1.2s-1.369-1.2-1.672-1.2-.811-.36-1.128-.8-.857-.8-1.2-.8-.883-.36-1.2-.8-.897-.8-1.288-.8c-.392 0-.712-.18-.712-.4s-.32-.4-.712-.4c-.391 0-.971-.36-1.288-.8s-.897-.8-1.288-.8c-.392 0-.712-.18-.712-.4s-.36-.4-.8-.4-.8-.18-.8-.4-.36-.4-.8-.4-.8-.152-.8-.337c0-.186-.855-.771-1.9-1.3-1.045-.53-1.96-1.098-2.033-1.263-.074-.165-.558-.3-1.077-.3-.518 0-1.054-.18-1.19-.4s-.597-.4-1.024-.4-.776-.18-.776-.4-.54-.4-1.2-.4-1.2-.18-1.2-.4-.54-.4-1.2-.4-1.2-.18-1.2-.4-.709-.4-1.576-.4-1.688-.18-1.824-.4-1.227-.4-2.424-.4-2.176-.18-2.176-.4c0-.246-2-.4-5.2-.4-4.933 0-5.2-.041-5.2-.8 0-.44.18-.8.4-.8s.4-.72.4-1.6.18-1.6.4-1.6.4-.709.4-1.576.18-1.688.4-1.824.4-1.047.4-2.024.18-1.776.4-1.776.4-.9.4-2 .18-2 .4-2 .4-.9.4-2 .18-2 .4-2c.229 0 .4-1.2.4-2.8s.171-2.8.4-2.8c.242 0 .4-1.733.4-4.4s.158-4.4.4-4.4c.258 0 .4-4.267.4-12s-.142-12-.4-12c-.233 0-.4-1.333-.4-3.2s-.167-3.2-.4-3.2c-.22 0-.4-.36-.4-.8 0-1.181-1.23-.976-2.4.4m1.52 2.88c.264.264.462 1.119.439 1.9l-.041 1.42-.313-1.32c-.172-.726-.408-1.416-.525-1.533s-2.658 2.248-5.646 5.256c-2.989 3.007-5.434 5.306-5.434 5.108 0-.736 10.075-11.311 10.776-11.311.145 0 .48.216.744.48m1.163 10.415c-.096.498-.178.185-.182-.695-.005-.88.074-1.287.174-.905.1.383.104 1.103.008 1.6m12.517 63.505c0 .22-.36.4-.8.4s-.8-.18-.8-.4.36-.4.8-.4.8.18.8.4m13.402 40.002c1.097 1.213.445 1.388-.816.22-.733-.679-.903-1.022-.506-1.022.328 0 .923.361 1.322.802m-2.704 3.092c.09.27-.172.359-.671.229-.45-.118-.714-.383-.586-.59.286-.462 1.056-.241 1.257.361" fill="#8c8b43"/><path d="m266.883 142.573c-.724.263-1.632.748-2.018 1.078-.385.33-1.007.718-1.383.862-.375.144-.682.538-.682.874 0 .408-.384.613-1.15.613-.96 0-1.19.2-1.392 1.209-.133.666-.56 1.332-.949 1.481-.877.337-2.689 2.11-2.156 2.11.215 0 .628-.225.918-.5.291-.275.979-.732 1.529-1.015 1.308-.673 8.161-5.738 8.333-6.159.074-.179.479-.326.9-.326.422 0 .767-.18.767-.4 0-.506-1.026-.44-2.717.173m-74.083 31.311c0 1.186 1.895 4.916 2.498 4.916.913 0 .885-.473-.144-2.491-1.074-2.104-2.354-3.423-2.354-2.425m-32.8 1.527c0 .872 3.6 8.197 5.942 12.089 1.192 1.982 1.775 3.3 1.46 3.3-.768 0-12.054-3.374-17.443-5.215-4.967-1.696-5.159-1.744-5.158-1.285.003 1.388 17.183 8.775 25.84 11.111.242.065 1.215 1.259 2.162 2.654 3.239 4.771 10.986 14.133 15.793 19.083l4.804 4.949-4.2-.281c-7.606-.509-15.768-1.974-21.497-3.858-2.816-.926-4.472-2.625-11.268-11.558-5.083-6.682-13.235-19.28-13.235-20.453 0-.191-.18-.347-.4-.347-1.954 0 7.147 15.984 14.88 26.133 1.313 1.723 2.28 3.24 2.149 3.371-.874.874-16.515-7.201-23.715-12.243-5.644-3.952-6.657-3.917-2.427.084 7.105 6.719 18.086 13.505 27.937 17.264l3.461 1.321 9.4 9.435c10.745 10.785 10.546 9.92 2.035 8.831-7.69-.985-20.502-3.502-24.587-4.831-3.273-1.065-12.593-14.384-18.638-26.637-1.702-3.45-3.23-6.285-3.395-6.3-.448-.042-.362 1.486.1 1.772.22.136.4.599.4 1.03 0 2.882 7.491 18.175 12.966 26.47.571.865.606 1.1.165 1.1-.849 0-11.645-3.715-15.731-5.413-4.497-1.869-9.504-3.784-9.9-3.786-3.463-.016 14.538 8.779 28.125 13.741 1.493.545 2.364 1.336 4.8 4.351 5.213 6.454 12.423 13.612 22.135 21.974 1.799 1.548 1.428 1.586-4.969.506-12.278-2.074-33.865-8.51-36.51-10.885-1.813-1.629-9.979-14.521-13.674-21.588-1.064-2.035-2.087-3.7-2.274-3.7s-.183.315.009.7.769 2.024 1.281 3.643c1.063 3.36 4.145 9.908 6.954 14.777 1.054 1.826 1.824 3.412 1.712 3.524-.232.232-11.131-5.147-12.751-6.293-.584-.413-1.349-.751-1.7-.751s-.639-.135-.641-.3-.452-.508-1-.762c-.548-.255-.997-.3-.997-.1 0 .199.135.362.3.363.165 0 .905.518 1.644 1.149 1.713 1.464 8.288 5.369 13.484 8.006 3.935 1.998 4.081 2.122 6.277 5.345 5.585 8.193 15.04 18.7 23.543 26.16 4.706 4.13 4.733 3.974-.474 2.714-10.627-2.572-22.916-6.686-33.225-11.121-1.699-.731-5.171-5.189-11.349-14.575-2.2-3.342-4.135-6.077-4.3-6.078-.974-.004.905 4.147 5.548 12.256 1.404 2.451 2.552 4.572 2.552 4.713 0 .142-2.532-1.027-5.626-2.597-5.219-2.649-6.87-3.207-5.522-1.867.953.946 7.613 5.287 11.148 7.266 3.198 1.79 3.572 2.145 6.29 5.969 6.636 9.333 16.294 20.211 24.858 27.997 3.109 2.826 5.652 5.188 5.652 5.248 0 1.475-29.323-7.737-39.638-12.452-3.935-1.799-6.467-5.793-10.736-16.934-1.644-4.293-2.079-5.2-2.494-5.2-1.054 0 1.86 10.604 4.373 15.912 1.089 2.3.954 2.972-.423 2.098-1.648-1.046-5.575-2.85-5.773-2.652-.301.301 5.411 4.182 7.793 5.295.276.129 1.519 2.059 2.762 4.291 6.542 11.74 16.817 24.261 26.469 32.256 3.857 3.195 3.984 3.482 1.223 2.787-.966-.243-2.138-.536-2.606-.652-.999-.246-2.609 1.246-2.277 2.111.377.983 6.406 3.088 13.67 4.773 1.766.409 3.784 1.365 6.6 3.127 4.361 2.726 6.054 3.314 6.956 2.412.307-.307.41-.561.23-.564-.181-.003-.059-.187.271-.408.523-.35.507-.472-.124-.955-1.273-.974-.043-1.113 5.41-.608 10.781.998 24.426.058 34.67-2.389l3.327-.795 4.059 1.628c8.489 3.404 10.258 3.945 10.258 3.133 0-.22-.255-.4-.567-.4-.311 0-.626-.135-.7-.3-.073-.165-2.156-1.283-4.629-2.484s-4.363-2.297-4.2-2.436c.163-.138.926-.479 1.696-.756.77-.278 1.76-.65 2.2-.828s1.092-.415 1.45-.528c.903-.284 1.734-2.668.929-2.668-.318 0-.579.162-.579.36s-.675.351-1.5.341c-.825-.011-3.246.376-5.38.86-4.52 1.025-3.391 1.374-11.92-3.686-9.158-5.434-17.461-10.924-24.107-15.941-.595-.449 1.315-.536 12-.544 13.929-.01 17.592-.359 27.563-2.625l5.256-1.194 6.544 2.034c3.599 1.119 7.404 2.141 8.456 2.272 1.051.13 2.007.392 2.123.58.297.48 2.165.431 2.165-.057 0-.22-.324-.4-.72-.4s-.891-.155-1.1-.345-3.125-1.394-6.48-2.676c-6.222-2.378-6.782-2.721-5.2-3.194 4.906-1.467 20.068-8.296 21.42-9.648.286-.286.824-.69 1.196-.898.917-.513.356-.998-.577-.5-4.106 2.19-16.968 6.77-24.292 8.651l-3.952 1.015-4.048-1.84c-9.548-4.339-22.593-11.52-30.005-16.517l-1.159-.781 9.439.227c12.803.308 21.205-.596 32.924-3.541l3.246-.816 4.154 1.408c9.923 3.363 17.554 5.237 17.554 4.309 0-.25-.272-.454-.605-.454s-.918-.171-1.3-.38c-.382-.21-2.675-1.135-5.095-2.057-6.009-2.289-10.266-4.035-10.121-4.152.067-.053 2.731-1.139 5.921-2.413 6.998-2.795 13.912-6.219 15.488-7.669.738-.68.63-1-.188-.553-2.541 1.391-18.193 6.783-23.688 8.161-2.548.638-2.362.695-9.812-3.019-9.142-4.559-19.505-10.447-22-12.501l-1.2-.988 7-.018c8.881-.023 18.082-1.074 24.864-2.841 1.328-.346 1.975-.156 7 2.048 9.472 4.157 21.736 8.025 21.736 6.855 0-.416-7.149-3.857-7.431-3.576-.252.253 3.764 2.303 4.51 2.303.286 0 .521.199.521.443 0 .261-.287.328-.7.164-.385-.153-1.87-.603-3.3-.999-4.041-1.12-12.453-4.347-17.759-6.813l-2.759-1.282-4.241.902c-7.339 1.56-17.039 2.465-25.041 2.336-4.549-.074-5.236.036-4.93.789.13.321 6.136 4.46 6.471 4.46.098 0 1.321.69 2.718 1.534 8.079 4.876 21.547 11.45 22.848 11.152 4.214-.963 12.601-3.612 16.94-5.349 1.423-.57 2.691-.932 2.818-.805.42.42-9.667 4.909-14.765 6.57-2.834.924-2.3 1.484 3.5 3.671 2.265.854 2.924 1.111 5.1 1.991.495.2 1.241.474 1.657.609.417.135.643.361.502.501-.14.14-.931.048-1.757-.206s-2.762-.842-4.302-1.306c-1.54-.465-4.351-1.367-6.247-2.004-4.068-1.366-4.46-1.387-7.91-.409-2.742.777-5.338 1.331-9.443 2.013-7.277 1.211-10.556 1.416-21.751 1.363-13.006-.062-12.631-.168-8.449 2.395 1.21.741 3.665 2.257 5.456 3.368 7.923 4.919 26.11 14.112 27.919 14.112.406 0 2.018-.364 3.582-.808 1.564-.445 3.563-1.012 4.443-1.26 1.776-.501 10.344-3.383 11.6-3.902 2.565-1.06 3.121-1.242 3.285-1.079.443.444-11.592 5.67-17.285 7.506-.88.284-1.649.541-1.709.572-.314.161.466 1.371.883 1.371.441 0 3.717 1.245 6.826 2.594.66.286 1.541.634 1.957.773.417.138.648.362.513.496-.134.135-.745.061-1.357-.163s-1.923-.629-2.913-.9-2.25-.64-2.8-.819c-4.63-1.511-6.91-2.048-7.878-1.854-.617.123-1.842.394-2.722.603-10.264 2.433-21.193 3.516-31.524 3.123-3.782-.143-7.911-.371-9.176-.506-1.454-.156-2.3-.096-2.3.161 0 .699 18.844 14.092 19.828 14.092.137 0 .726.339 1.31.753s1.692 1.112 2.462 1.551 3.309 1.9 5.643 3.247c4.575 2.641 5.127 2.759 8.622 1.849 5.922-1.543 6.969-.216 1.435 1.819-1.845.678-1.66.99 1.541 2.602 2.488 1.252 3.816 2.607 1.458 1.486-2.445-1.162-4.732-2.107-5.1-2.107-.225 0-.751-.213-1.167-.473-.739-.462-2.528-.222-6.632.89-.66.179-2.55.527-4.2.775-1.65.247-3.99.648-5.2.89-3.125.625-23.669.575-26-.063-4.124-1.129-5.372-.925-4.35.712 1.685 2.698-.873 2.585-5.373-.238-3.639-2.282-4.416-2.604-9.477-3.916-6.502-1.686-9.2-2.813-9.2-3.841 0-.934 1.836-.99 4.636-.14 3.724 1.129 3.519.69-1.736-3.705-6.342-5.304-13.083-12.387-18.363-19.291-3.478-4.548-5.918-8.361-9.346-14.6-.725-1.32-1.657-2.64-2.071-2.934-.49-.348-.667-.802-.508-1.303.144-.456-.235-1.783-.934-3.266-1.635-3.467-3.762-9.8-3.566-10.618.124-.519.269-.42.616.422.509 1.236 1.598 3.677 3.315 7.427.636 1.39 1.157 2.6 1.157 2.687 0 .455 3.693 5.785 4.008 5.785.202 0 1.319.434 2.48.965 5.969 2.728 16.153 6.468 23.512 8.635 1.65.486 3.45 1.027 4 1.203s1.81.511 2.8.743c.99.233 3.362.79 5.271 1.238 6.278 1.476 6.336 1.359 1.529-3.086-8.835-8.171-15.733-15.414-21.425-22.498-1.326-1.65-3.966-5.096-5.868-7.658-2.218-2.99-3.931-4.894-4.782-5.317-2.685-1.336-9.525-5.602-9.525-5.941 0-.423-.268-.534 4.513 1.881 2.139 1.081 3.988 1.868 4.108 1.748.197-.198-1.041-2.721-1.821-3.713-1.282-1.629-6.211-11.313-5.251-10.317.468.486.851.993.851 1.126 0 .307 4.912 7.319 8.319 11.875 1.507 2.014 3.128 3.73 3.843 4.067 4.39 2.067 12.864 5.162 23.638 8.631 3.584 1.154 13.425 3.618 14.451 3.618 1.515 0 1.162-.516-2.551-3.723-9.534-8.235-18.653-18.308-24.419-26.97-2.035-3.058-2.401-3.396-5.145-4.751-1.624-.803-3.05-1.616-3.168-1.808-.283-.457.06-.44 1.037.052.437.22 1.153.58 1.59.8 2.105 1.06 2.101.098-.013-3.382-1.732-2.851-6.382-12.078-6.382-12.665 0-.63.7-.373.942.347.13.385.561 1.24.957 1.9.397.66 1.245 2.1 1.885 3.2 5.443 9.352 9.094 13.662 12.633 14.912 14.82 5.23 24.159 7.807 33.583 9.266 1.43.222 3.55.562 4.711.757 2.912.489 3.103-.031.689-1.883-7.279-5.584-17.718-16.065-24.352-24.448-1.061-1.341-1.89-1.915-3.518-2.436-2.047-.655-7.114-2.614-9.83-3.8-.715-.313-1.975-.861-2.8-1.219-9.162-3.974-14.752-7.572-6.678-4.298 4.415 1.79 8.922 3.455 13.378 4.943 1.87.624 3.715 1.261 4.1 1.413 1.248.496.794-.903-1.3-4.007-1.1-1.63-2-3.079-2-3.22s-.342-.737-.76-1.324c-.419-.588-1.823-3.135-3.12-5.662-1.985-3.863-3.02-6.167-4.833-10.76-.523-1.326.645.083 1.529 1.844 2.884 5.743 9.684 16.277 13.894 21.522l2.569 3.2 4.26 1.11c4.99 1.299 11.842 2.703 16.861 3.454 15.042 2.249 15.375 2.18 10.521-2.191-2.82-2.541-9.876-9.64-14.168-14.258-1.439-1.547-2.472-2.168-5.763-3.461-8.572-3.369-15.231-7.085-22.19-12.383-4.801-3.656-5.943-5.42-1.598-2.47 7.562 5.136 23.198 12.536 23.198 10.98 0-.121-1.318-1.966-2.929-4.1-5.844-7.743-10.841-15.681-9.871-15.681.22 0 .4.184.4.41 0 1.673 15.156 20.763 17.079 21.512 2.406.937 7.101 2.101 13.321 3.303 5.133.992 14.4 1.576 14.4.907 0-.147-1.125-1.457-2.5-2.91-7.425-7.848-15.607-17.774-18.864-22.882-.719-1.128-1.059-1.289-6.036-2.855-6.017-1.892-18.55-7.268-18.069-7.75.108-.108 1.788.339 3.733.993 3.636 1.222 7.918 2.545 10.736 3.317.88.241 2.013.6 2.519.797 3.179 1.24 3.727.444 1.835-2.666-1.873-3.078-4.954-9.021-4.954-9.555 0-.229 1.373 1.653 3.051 4.182 5.917 8.914 6.696 9.781 9.135 10.168.888.141 2.514.43 3.614.644 6.487 1.259 17.204 2.373 22.9 2.38 4.852.006 5.002-.2 2.532-3.459-2.024-2.669-2.544-3.667-2.275-4.367.487-1.271 1.459-.511 5.791 4.531l2.148 2.5h2.321c1.277 0 3.281-.192 4.452-.426 1.172-.234 3.121-.617 4.331-.851 2.525-.488 7.292-1.767 8.88-2.384 2.44-.948 1.917.041-.729 1.379-3.47 1.755-8.961 3.6-12.857 4.32-1.592.295-2.894.733-2.894.975 0 1.297 18.09 16.863 20.735 17.841.478.177 2.049-.165 4.119-.898 1.84-.651 4.128-1.46 5.084-1.798 3.264-1.156 2.172-.19-2.18 1.927-2.391 1.163-4.349 2.295-4.352 2.515s3.458 2.726 7.692 5.568c4.234 2.843 7.637 5.23 7.562 5.306-.428.428-11.735-5.245-16.638-8.349-2.271-1.437-2.377-1.43-8.163.477-7.946 2.62-8.182 2.678-17.683 4.367-1.333.237-2.988.431-3.676.431-2.597 0-1.994.771 4.9 6.259 11.084 8.825 10.861 8.717 15.869 7.715 1.172-.234 3.121-.609 4.331-.833 3.745-.691 8.77-1.819 10.4-2.333.55-.173 1.81-.537 2.8-.808s2.286-.67 2.88-.886c1.679-.613 2.291-.123.72.576-3.533 1.573-8.074 3.199-12 4.299-.99.277-2.25.65-2.8.828s-1.99.54-3.2.803c-5.159 1.124-5.194 1.279-.878 4.007 1.473.932 3.936 2.506 5.473 3.5 10.891 7.037 12.041 7.446 15.817 5.621 2.485-1.2 2.89-.639.498.69-1.53.851-2.034 1.342-1.882 1.835.168.541-.05.666-1.11.636-1.137-.031-4.002 1.072-10.267 3.954-.742.342-1.822.768-2.4.947-3.258 1.013-5.451 1.989-5.451 2.427 0 1.283 13.391 7.275 14.942 6.686 2.551-.97 3.12-4.009 1.009-5.392-1.704-1.117-4.31 1.948-3.484 4.099.33.859.151.791-6.056-2.306-6.319-3.154-6.325-3.162-3.306-4.146 2.416-.788 11.026-4.325 13.098-5.38 1.354-.69 1.473-.689 3.4.043 2.214.841 3.397.966 3.397.359 0-.22-.225-.401-.5-.402s-1.026-.423-1.669-.937l-1.168-.935 3.268-1.959c5.148-3.085 4.141-3.538-2.018-.909l-3.887 1.658-4.092-2.294c-5.18-2.905-15.934-9.801-15.934-10.218 0-.173.604-.428 1.342-.567 7.411-1.39 26.658-8.559 26.658-9.929 0-.543-.952-.339-5.221 1.117-6.011 2.049-15.296 4.348-21.852 5.411l-5.673.92-3.917-2.978c-5.573-4.237-12.537-9.955-12.537-10.295 0-.159 2.205-.603 4.9-.988 5.78-.824 11.075-2.114 17.766-4.328l4.866-1.61 3.901 2.252c13.424 7.75 24.812 11.731 13.367 4.673-4.205-2.593-12.874-8.542-12.7-8.715.079-.08 2.654-1.411 5.722-2.958 9.68-4.883 9.542-5.582-.365-1.847-8.218 3.098-8.09 3.085-10.774 1.091-6.752-5.016-17.784-14.585-17.851-15.484-.018-.237 1.098-.639 2.48-.894 6.793-1.251 19.022-6.668 17.808-7.887-.154-.155-2.512.448-5.24 1.339-5.198 1.699-11.629 3.095-16.219 3.522l-2.716.252-3.701-4.25c-3.901-4.481-4.048-4.59-4.968-3.67-.319.319-.694.468-.832.33-.953-.954 1.003 2.798 2.603 4.992l1.967 2.697-5.507.121c-6.083.134-10.606-.274-19.307-1.742-7.284-1.23-7.429-1.294-9.578-4.296-2.172-3.033-7.608-11.201-8.641-12.983-.808-1.393-1.381-1.679-1.381-.689m-4.771 6.443c-1.075 1.366-1.104 3.57-.055 4.132 2.641 1.414 5.168-1.777 3.403-4.297-.844-1.205-2.328-1.132-3.348.165m2.772-.053c1.243 1.498.26 3.799-1.623 3.799-1.355 0-1.791-.988-1.163-2.639.676-1.778 1.863-2.272 2.786-1.16m17.608 15.081c.02 1.06 9.185 11.478 17.781 20.211l5.21 5.293 4.235.007c3.706.006 6.888-.355 13.965-1.586 7.101-1.235 13.265-3.086 12.373-3.716-7.497-5.3-12.527-9.574-18.373-15.611l-3.02-3.12-4.526.452c-3.327.333-6.081.337-10.39.015-5.395-.403-7.486-.677-12.464-1.633-4.181-.803-4.8-.843-4.791-.312m6.092 1.1c6.043 1.11 15.227 1.717 21.012 1.388l4.914-.28 5.086 4.969c5.021 4.905 8.991 8.291 13.287 11.333 1.21.857 2.275 1.615 2.367 1.683 1.24.929-16.276 4.414-24.122 4.8l-5.156.254-6.447-6.565c-5.873-5.979-13.532-14.506-15.508-17.264-.963-1.344-1.002-1.341 4.567-.318m-17.465 5.318c-1.044 1.614-1.199 3.057-.421 3.916 1.554 1.718 4.185.476 4.185-1.977 0-2.567-2.518-3.864-3.764-1.939m2.633.162c1.396 1.264.109 4.599-1.533 3.969-.331-.127-.767-.231-.969-.231-.602 0-.416-2.552.256-3.511.743-1.061 1.265-1.114 2.246-.227m35.746 3.459c-1.531 2.336-.968 4.679 1.125 4.679 1.621 0 2.66-1.093 2.66-2.8 0-2.51-2.544-3.773-3.785-1.879m2.985.811c.86 1.531-.104 3.268-1.815 3.268-1.581 0-1.953-2.432-.583-3.802 1.018-1.018 1.599-.889 2.398.534m41.596 10.368c-1.451 2.379-.877 4.3 1.284 4.3 1.466 0 2.72-1.291 2.72-2.8 0-2.661-2.684-3.666-4.004-1.5m2.594-.357c1.509 1.104.592 4.257-1.238 4.257-1.655 0-2.041-2.484-.636-4.1.732-.842.915-.858 1.874-.157m-120.74 1.002c-1.546 1.708-1.561 4.094-.031 4.791 2.676 1.219 4.921-2.433 2.799-4.554-1.175-1.176-1.865-1.235-2.768-.237m2.875 1.781c.208 1.731-.588 2.739-2.052 2.597-1.654-.16-1.976-1.976-.648-3.664 1.036-1.317 2.481-.746 2.7 1.067m38.676 2.672c-.354.573 12.484 12.478 18.457 17.115l1.657 1.287 8.943-.003c7.949-.003 15.766-.488 16.289-1.01.445-.446-.285-.516-1.758-.168-1.911.45-21.222 1.01-22.633.656-1.664-.418-11.471-8.677-17.146-14.439-3.095-3.142-3.148-3.315-.807-2.622 4.402 1.303 15.889 2.761 21.886 2.778l2.888.008 4.912 4.11c5.103 4.271 11.299 9.09 11.687 9.09.594 0 .105-.698-.907-1.296-1.469-.868-9.11-6.938-12.572-9.988l-2.703-2.382-4.097-.141c-7.168-.248-14.346-1.074-18.997-2.186-3.811-.912-4.926-1.089-5.099-.809m-18.605 2.102c-1.451 2.379-.877 4.3 1.284 4.3 2.289 0 3.497-2.713 2.097-4.711-.935-1.335-2.427-1.154-3.381.411m2.981-.011c.838 1.197.784 2.15-.177 3.111-2.213 2.213-4.175-.894-2.084-3.3.816-.94 1.512-.881 2.261.189m70.652 2.965c-1.828 2.323-.276 5.745 2.044 4.509 2.568-1.368 2.211-5.563-.473-5.563-.408 0-1.115.474-1.571 1.054m2.691.226c.918.918.587 3.089-.551 3.607-1.44.656-2.387-.022-2.309-1.653.101-2.101 1.653-3.161 2.86-1.954m-35.524 4.42c-1.451 2.379-.877 4.3 1.284 4.3 2.389 0 3.572-2.935 1.904-4.725-1.161-1.246-2.259-1.1-3.188.425m3.376.932c.354 1.409-.679 2.968-1.967 2.968-1.186 0-1.804-1.024-1.519-2.516.454-2.376 2.923-2.697 3.486-.452m-41.772 5.923c0 1.029 12.127 12.992 18.8 18.545 3.159 2.629 8.031 6.307 9.513 7.181l1.713 1.011 8.087-.231c8.157-.233 13.745-.665 18.887-1.462 1.54-.238 3.572-.54 4.515-.67 2.415-.333 2.052-.765-3.148-3.752-5.91-3.393-13.1-8.234-18.309-12.324-3.832-3.01-4.28-3.253-6-3.252-3.35 0-16.173-1.67-21.458-2.795-.88-.188-2.68-.562-4-.833s-3.39-.753-4.6-1.073c-3.94-1.039-4-1.044-4-.345m5.44 1.212c8.482 2.071 17.97 3.563 25.928 4.077l4.251.275 4.691 3.584c5.807 4.438 12.666 9.031 17.782 11.908 2.14 1.204 3.895 2.303 3.9 2.441.028.839-15.956 2.417-25.22 2.489l-7.46.059-3.951-3c-8.182-6.213-18.819-15.853-22.99-20.835-1.915-2.287-2.04-2.246 3.069-.998m-21.763.864c-.449.314-1.026 1.208-1.282 1.985-1.144 3.466 3.072 4.776 4.339 1.35.81-2.188-1.343-4.536-3.057-3.335m2.243.649c1.237 1.237.22 3.92-1.485 3.92-1.585 0-2.166-.802-1.62-2.238.807-2.124 2.011-2.776 3.105-1.682m102.37.621c-2.472 2.731-.858 6.549 1.982 4.689 1.931-1.266 1.877-4.387-.09-5.142-.966-.37-1.198-.315-1.892.453m-27.29.518c-3.212.649-9.713 1.189-14.276 1.185-2.572-.002-4.783.168-4.913.377-.249.404 3.919 3.312 11.189 7.804 2.42 1.496 5.48 3.396 6.8 4.223 4.814 3.016 8.899 5.192 9.747 5.192 1.38 0 11.031-2.639 14.853-4.061 1.21-.451 2.695-1.003 3.3-1.228 1.68-.624 1.336-1.253-1.39-2.537-4.012-1.891-10.789-5.577-15.779-8.582-4.929-2.968-5.67-3.153-9.531-2.373m29.72.061c.68.68.595 2.548-.149 3.291-1.525 1.526-3.663.249-2.908-1.737.758-1.994 1.99-2.621 3.057-1.554m-19.431 3.338c3.141 1.879 8.206 4.685 11.255 6.236 3.049 1.55 5.389 2.963 5.2 3.14-.538.503-5.55 2.212-10.985 3.745-7.804 2.201-7.026 2.212-11.238-.162-5.994-3.379-21.671-13.249-22.071-13.896-.11-.178 3.018-.555 6.95-.837 3.933-.282 8.646-.747 10.475-1.033s3.635-.54 4.014-.565 3.259 1.492 6.4 3.372m-6.46 4.836c-1.906 2.423-.339 5.778 2.094 4.483 2.066-1.101 2.441-3.01.895-4.555-1.256-1.256-1.958-1.239-2.989.072m3.171 1.928c0 1.547-.622 2.218-2.053 2.218-1.845 0-2.003-2.955-.224-4.201 1.128-.79 2.277.21 2.277 1.983m-37.84-1.876c-1.314.878-1.819 4.015-.784 4.874 1.581 1.312 4.595-.845 4.076-2.917-.46-1.831-2.058-2.781-3.292-1.957m1.909.756c1.366 1.237.489 4.138-1.251 4.138-1.693 0-2.124-2.049-.789-3.746.975-1.24 1.08-1.26 2.04-.392m-52.869 3.672c0 2.548 25.143 27.193 32.879 32.228 2.886 1.879 28.074 2.843 37.881 1.451 1.452-.206 4.26-.593 6.24-.859 6.509-.875 6.726-1.233 1.899-3.126-7.524-2.95-18.097-8.594-27.099-14.465-3.594-2.344-5.252-3.187-6.6-3.358-13.722-1.734-28.076-5.479-40.566-10.584-4.159-1.7-4.634-1.832-4.634-1.287m3.687 1.433c9.836 4.35 24.04 8.281 37.514 10.382l5.834.91 4.583 3.012c8.334 5.478 16.849 10.086 24.982 13.52 5.062 2.137 5.12 2.205 2.323 2.739-9.863 1.884-25.375 2.345-37.689 1.12-7.999-.795-7.178-.485-12.525-4.732-9.28-7.368-16.165-14.044-24.295-23.552-4.092-4.785-4.116-4.898-.727-3.399m-14.272 6.754c-.996 1.52-1.179 3.258-.423 4.014 1.493 1.492 4.208.173 4.208-2.046 0-2.552-2.538-3.872-3.785-1.968m2.654.141c1.455 1.317.466 4.138-1.451 4.138-1.862 0-2.281-1.435-1.022-3.5.892-1.463 1.413-1.597 2.473-.638m119.444 3.027c.443.928.424 1.236-.132 2.084-1.285 1.961-3.381 1.63-3.381-.533 0-2.63 2.475-3.723 3.513-1.551m-24.068 7.461c-.913 1.009-1.289 3.474-.648 4.247 1.291 1.555 4.403-.001 4.403-2.203 0-2.12-2.469-3.464-3.755-2.044m2.955 1.05c.807 2.122-1.429 4.304-3.04 2.967-.682-.566-.522-2.449.291-3.429.762-.918 2.324-.655 2.749.462m-50.533.126c-1.266 1.399-1.644 3.216-.85 4.092 1.544 1.706 4.316.41 4.316-2.018 0-2.283-2.126-3.555-3.466-2.074m2.465.679c1.276 1.622-.004 4.01-1.999 3.727-1.313-.186-1.521-2.565-.336-3.837 1.061-1.138 1.365-1.124 2.335.11m-54.332 1.59c0 1.639 22.237 24.674 30.939 32.049 5.79 4.908 5.544 4.811 14.479 5.711 5.57.561 24.086.581 27.905.03 7.454-1.076 8.541-1.249 9.444-1.508.976-.28 1.661-1.277.876-1.277-.232 0-1.602-.54-3.043-1.2s-2.709-1.2-2.818-1.2c-.344 0-7.007-3.146-11.582-5.47-5.901-2.996-10.946-5.962-17.2-10.114l-5.2-3.452-4.8-.93c-4.338-.84-6.577-1.366-10.5-2.469-.715-.201-1.885-.527-2.6-.724-5.55-1.532-16.119-5.473-22.002-8.202-2.964-1.375-3.898-1.673-3.898-1.244m5.547 2.558c9.164 4.12 22.714 8.468 32.653 10.478l5.6 1.132 5.651 3.754c8.797 5.845 22.799 13.254 30.849 16.325 3.687 1.407 3.384 1.569-5.3 2.834-5.489.799-26.548.662-33.168-.216l-5.169-.685-4.631-3.869c-7.691-6.423-30.432-29.674-30.432-31.114 0-.362.499-.19 3.947 1.361m113.43 5.953c-2.401 1.667-2.138 5.694.373 5.694 1.036 0 2.65-1.827 2.65-3 0-1.621-2.001-3.404-3.023-2.694m1.892 1.156c1.503 1.36.394 3.738-1.744 3.738-1.757 0-2.049-2.219-.496-3.772.8-.8 1.326-.792 2.24.034m-124.847 3.716c-1.008 1.008-1.478 3.432-.818 4.226.773.932 3.038.756 3.773-.293 1.789-2.554-.838-6.05-2.955-3.933m2.764.796c.953 1.781-.203 3.826-2.012 3.558-1.461-.216-1.847-1.27-1.065-2.91.78-1.636 2.369-1.971 3.077-.648m93.796 7.408c-1.81 1.81-1.19 4.751 1.002 4.751 2.501 0 3.667-2.919 1.879-4.706-1.273-1.274-1.647-1.28-2.881-.045m2.867.836c1.152 1.759-.579 3.839-2.649 3.182-1.599-.507-.532-4.2 1.213-4.2.423 0 1.069.458 1.436 1.018m-55.453 1.482c-1.379 2.262-.708 4.3 1.417 4.3 2.164 0 3.47-3.477 1.856-4.938-1.168-1.057-2.385-.819-3.273.638m3.028.08c.717 1.094.468 2.506-.582 3.306-2.209 1.682-3.663-1.344-1.724-3.586.834-.964 1.548-.877 2.306.28m-56.43-.17c-.244.395 1.185 2.576 5.76 8.79 4.686 6.365 14.72 16.952 21.046 22.206 1.32 1.097 2.49 2.102 2.6 2.233 1.168 1.398 9.204 6.759 10.133 6.76.624 0 2.604.382 4.4.848 6.231 1.616 31.952 1.285 40.367-.519 2.483-.533 2.415-.708-.875-2.26-9.439-4.452-24.965-14.063-32.116-19.882-1.944-1.582-4.124-2.75-5.629-3.015-8.805-1.555-17.627-3.941-25.28-6.839-1.76-.666-4.19-1.585-5.4-2.041s-3.325-1.338-4.7-1.96c-4.666-2.111-7.889-3.608-8.973-4.169-.705-.364-1.169-.417-1.333-.152m6.548 3.193c11.851 5.444 25.739 9.978 37.458 12.23 3.486.669 3.739.795 8 3.965 9.078 6.755 17.702 12.168 27.167 17.049 3.455 1.783 5.768 3.193 5.427 3.309-6.453 2.207-31.563 2.235-43.18.049-7.524-1.416-26.9-19.342-38.117-35.266-3.205-4.549-3.493-4.431 3.245-1.336m-17.937 18.697c.008.466 2.703 2.1 3.465 2.1.597 0 .583-.086-.115-.7-1.568-1.379-3.362-2.129-3.35-1.4m105.81 1.421c-1.657 2.529-1.1 4.679 1.211 4.679 2.342 0 3.484-3.09 1.774-4.8-1.06-1.06-2.242-1.012-2.985.121m3.185 1.079c.559 1.761-.973 3.516-2.615 2.995-1.086-.344-1.071-2.709.024-3.804.936-.936 2.158-.554 2.591.809m-55.11.301c-2.409 2.661-1.198 6.104 1.72 4.895 2.088-.865 2.269-3.595.33-4.953-1.149-.805-1.273-.802-2.05.058m2.278.864c1.693 1.87-.699 5.127-2.541 3.46-1.024-.928-1.028-1.29-.031-2.925.906-1.486 1.584-1.627 2.572-.535m73.432 4.451c-.33.177-2.13.905-4 1.616-1.87.712-3.684 1.536-4.031 1.831-.348.295-.933.537-1.3.537-.368 0-.669.204-.669.454 0 1.315 7.394-1.369 9.964-3.616 1.021-.893 1.042-1.362.036-.822m-5.4 3.184c-.136.22-.517.4-.847.4s-.489-.18-.353-.4.517-.4.847-.4.489.18.353.4m-79.245 13.673c-.461.746-.496 2.877-.057 3.427.272.34.257.5-.049.5-.247 0-.449.18-.449.4s.368.4.818.4c.449 0 .774-.225.721-.5-.188-.978.518-2.454.888-1.856.27.436.442.447.834.055.393-.393.314-.663-.383-1.312-.483-.45-.878-.991-.878-1.203 0-.545-1.095-.478-1.445.089m43.146 4.141c-1.522 1.066-2.059 3.729-.936 4.638 2.736 2.216 5.694-1.954 3.109-4.382-1.103-1.036-1.065-1.032-2.173-.256m2.358 1.157c.609 1.334.115 2.967-1.058 3.501-1.251.57-2.201-.134-2.201-1.632 0-2.432 2.381-3.798 3.259-1.869m5.09 9.304c-.483.594-.461.642.184.4.403-.151.988-.275 1.3-.275s.567-.18.567-.4c0-.651-1.457-.456-2.051.275m-29.549 2.074c0 .955 18.366 1.548 18.682.604.082-.246-.42-.561-1.116-.7-1.934-.387-17.566-.301-17.566.096m13.7.74c-.715.089-1.885.089-2.6 0-.715-.088-.13-.161 1.3-.161s2.015.073 1.3.161" fill="#ede69b"/><path d="m269.544 28.1c-3.362 3.272-7.944 8.354-7.944 8.811 0 .198 2.445-2.101 5.434-5.108 2.988-3.008 5.529-5.373 5.646-5.256s.353.807.525 1.533l.313 1.32.041-1.42c.037-1.289-.505-2.38-1.183-2.38-.145 0-1.42 1.125-2.832 2.5m4.557 7.7c.004.88.086 1.193.182.695.096-.497.092-1.217-.008-1.6-.1-.382-.179.025-.174.905m1.899 102.871c-.55.089-1.36.318-1.8.509s-1.135.456-1.545.588c-.609.198-.655.35-.251.837.343.413.357.595.045.595-.247 0-.449-.18-.449-.4s-.45-.4-1-.4-1 .159-1 .353c0 .195-.405.484-.9.643-.762.245-.793.317-.2.476.941.251.893.928-.067.928-.421 0-.826.142-.9.316-.073.173-1.573 1.375-3.333 2.67-5.269 3.879-5.131 4.09.232.355 3.346-2.331 7.341-4.541 8.209-4.541.307 0 .559-.18.559-.4s.276-.4.614-.4c.811 0 2.461-1.098 2.74-1.824.121-.317.182-.551.133-.522-.048.03-.537.128-1.087.217m23.078.433c-.641.145-.605.272.32 1.13 1.221 1.131 1.25 1.138 1.532.404.283-.737-.931-1.742-1.852-1.534m-2.837 3.629c-.128.207.136.472.586.59.499.13.761.041.671-.229-.201-.602-.971-.823-1.257-.361m-36.641 3.993c-.33.113-1.077.716-1.66 1.34-.584.624-1.214 1.134-1.4 1.135-.87.002-2.771 2.242-2.631 3.099.081.495.285.9.454.9.644 0 4.962-3.358 4.511-3.509-.673-.224-.589-.891.112-.891.606 0 1.562-1.401 1.34-1.962-.069-.175-.396-.225-.726-.112m-1.2 3.274c0 .22-.075.4-.167.4s-.491.124-.887.276c-.643.247-.657.206-.133-.385.668-.752 1.187-.879 1.187-.291m-83.4 18.267c-15.252 1.865-20.655 4.545-32.929 16.333-4.141 3.977-7.772 8.14-11.862 13.6-1.484 1.98-3.106 3.819-3.605 4.088-.5.268-1.26 1.168-1.69 2-.903 1.744-6.113 10.347-7.7 12.712-.59.88-1.447 2.59-1.905 3.8-1.884 4.985-2.211 5.88-2.774 7.6-.324.99-.833 2.34-1.131 3s-.93 2.19-1.404 3.4-1.098 2.74-1.387 3.4c-.288.66-1.113 2.73-1.833 4.6s-1.805 4.39-2.412 5.6c-1.109 2.214-1.483 3.138-3.642 9-1.44 3.909-2.064 5.742-2.927 8.6-.365 1.21-1.02 3.37-1.456 4.8-1.111 3.649-1.803 6.199-3.367 12.4-1.161 4.604-1.54 5.561-2.569 6.494-1.104 1.002-1.716 2.268-.832 1.721.207-.127.553.085.77.473s.46.617.539.509c.324-.44 1.522-4.484 2.726-9.197 2.038-7.978 3.492-12.952 5.787-19.8 3.135-9.352 3.692-10.825 5.596-14.8.948-1.98 2.124-4.753 2.613-6.161.489-1.409 1.787-4.649 2.883-7.2 1.096-2.552 2.899-7.233 4.006-10.404 1.83-5.24 4.277-9.919 4.632-8.855.078.234.315.318.527.187.245-.152.241-.412-.012-.716-.247-.298-.257-.698-.025-1.064.252-.399.373-.427.377-.087.003.275.161.5.351.5.189 0 .253-.477.142-1.059-.14-.732-.061-.972.255-.777.287.178.458-.024.458-.54 0-.453.18-.824.4-.824s.4-.28.4-.622.9-2.025 2-3.74 2-3.313 2-3.551.36-.547.8-.687c.441-.14 2.088-1.997 3.661-4.127 7.491-10.146 17.873-20.221 25.339-24.592 6.803-3.983 17.571-6.026 26.784-5.081 5.296.543 6.252.535 6.798-.057.305-.329.173-.393-.483-.235-.496.12-2.926-.034-5.4-.341-4.378-.545-6.025-.603-8.499-.3m21.4 12.272c0 .434 1.307 2.652 1.808 3.068.842.698.717-.025-.208-1.207-.43-.55-.786-1.225-.791-1.5-.008-.418-.809-.777-.809-.361m40.591 8.486c.532.784 1.869 2.143 2.972 3.021 2.673 2.129 5.593 6.077 8.1 10.954 1.132 2.2 2.586 4.776 3.233 5.725 2.727 3.998 4.435 9.41 5.578 17.675.692 4.998.66 22.896-.043 24.6-.272.66-.918 3.63-1.434 6.6-.517 2.97-1.214 6.93-1.55 8.8s-.808 5.47-1.051 8c-.516 5.395-1.123 8.585-2.74 14.4-.726 2.609-1.157 3.79-3.651 10-1.37 3.41-3.173 8.09-4.006 10.4-2.108 5.843-3.645 9.634-5.512 13.6-2.116 4.495-3.687 7.984-3.687 8.19 0 .259-2.675 4.839-5.053 8.653-1.908 3.06-2.886 6.061-1.747 5.357.22-.136.4-.605.4-1.043s.945-2.362 2.099-4.276c1.155-1.915 2.42-4.021 2.812-4.681.659-1.109 2.368-4.625 4.377-9 .454-.99 1.491-3.24 2.304-5 1.408-3.05 2.157-4.92 4.047-10.1.461-1.265.985-2.66 1.164-3.1 7.241-17.824 9.997-27.319 9.997-34.436 0-1.157.171-2.972.38-4.033.448-2.282.984-5.272 1.635-9.131.26-1.54.918-4.87 1.462-7.4 2.991-13.9.661-35.422-4.699-43.4-.591-.88-1.854-3.13-2.807-5-3.232-6.341-7.368-11.926-9.97-13.463-.661-.39-1.318-1.075-1.46-1.522-.251-.791-1.251-1.777-1.829-1.802-.158-.007.147.628.679 1.412m-130.191 128.175c0 .44.142.8.315.8s.342-.36.375-.8-.109-.8-.315-.8-.375.36-.375.8m1.3.1c.214.642 1.5.904 1.5.306 0-.249-.18-.342-.4-.206s-.4.057-.4-.176-.195-.424-.433-.424c-.239 0-.359.225-.267.5m80.7 52.3c0 .22.259.4.576.4s.688-.18.824-.4-.123-.4-.576-.4-.824.18-.824.4" fill="#ccc355"/></g></svg>